<?xml version="1.0" standalone="no"?>
<!DOCTYPE svg PUBLIC "-//W3C//DTD SVG 20010904//EN"
 "http://www.w3.org/TR/2001/REC-SVG-20010904/DTD/svg10.dtd">
<svg version="1.0" xmlns="http://www.w3.org/2000/svg"
 width="280.000000pt" height="280.000000pt" viewBox="0 0 280.000000 280.000000"
 preserveAspectRatio="xMidYMid meet">
<metadata>
Created by potrace 1.15, written by Peter Selinger 2001-2017
</metadata><g><rect x="0" y="0" width="280" height="280" fill="#ffffff" />
<g transform="translate(0.000000,280.000000) scale(0.020000,-0.020000)"
fill="#020304" stroke="none">
<path d="M1547 12789 c-73 -11 -186 -69 -232 -120 -51 -57 -94 -149 -105 -226
-13 -92 -13 -2005 0 -2097 13 -84 66 -191 121 -241 57 -51 149 -94 226 -105
91 -13 2005 -13 2096 0 77 11 169 54 226 105 55 50 108 157 121 241 13 93 13
2005 0 2098 -13 84 -66 191 -121 241 -57 51 -149 94 -226 105 -84 12 -2023 11
-2106 -1z m1844 -445 c80 -42 126 -89 171 -176 l33 -63 5 -655 c3 -360 2 -681
-2 -713 -9 -67 -54 -161 -103 -216 -48 -53 -158 -109 -231 -118 -33 -5 -354
-6 -714 -3 l-655 5 -72 39 c-40 21 -88 56 -108 77 -49 55 -94 149 -103 216 -4
32 -5 353 -2 713 l5 655 39 72 c45 84 91 129 178 175 l63 33 655 5 c360 3 681
2 714 -3 36 -4 84 -21 127 -43z"/>
<path d="M2347 11989 c-73 -11 -186 -69 -232 -120 -51 -57 -94 -149 -105 -226
-12 -88 -12 -408 0 -496 11 -77 54 -169 105 -226 50 -55 157 -108 241 -121 89
-12 409 -13 497 0 77 11 169 54 226 105 55 50 108 157 121 241 13 89 13 409 0
498 -13 84 -66 191 -121 241 -57 51 -149 94 -226 105 -81 12 -424 11 -506 -1z"/>
<path d="M10347 12789 c-73 -11 -186 -69 -232 -120 -51 -57 -94 -149 -105
-226 -13 -92 -13 -2005 0 -2097 13 -84 66 -191 121 -241 57 -51 149 -94 226
-105 91 -13 2005 -13 2096 0 77 11 169 54 226 105 55 50 108 157 121 241 6 42
10 452 10 1049 0 597 -4 1007 -10 1049 -13 84 -66 191 -121 241 -57 51 -149
94 -226 105 -84 12 -2023 11 -2106 -1z m1844 -445 c80 -42 126 -89 171 -176
l33 -63 5 -655 c3 -360 2 -681 -2 -713 -9 -67 -54 -161 -103 -216 -48 -53
-158 -109 -231 -118 -33 -5 -354 -6 -714 -3 l-655 5 -72 39 c-40 21 -88 56
-108 77 -49 55 -94 149 -103 216 -4 32 -5 353 -2 713 l5 655 39 72 c45 84 91
129 178 175 l63 33 655 5 c360 3 681 2 714 -3 36 -4 84 -21 127 -43z"/>
<path d="M11147 11989 c-73 -11 -186 -69 -232 -120 -51 -57 -94 -149 -105
-226 -5 -37 -10 -149 -10 -248 0 -220 11 -297 50 -376 42 -83 89 -131 169
-173 87 -46 156 -56 386 -56 220 0 297 11 376 50 83 42 131 89 173 169 46 87
56 156 56 386 0 99 -5 211 -10 249 -13 84 -66 191 -121 241 -57 51 -149 94
-226 105 -81 12 -424 11 -506 -1z"/>
<path d="M4532 12749 c-87 -44 -122 -141 -82 -224 43 -90 140 -126 225 -85 90
43 126 140 85 225 -43 90 -144 127 -228 84z"/>
<path d="M4932 12749 c-87 -44 -122 -141 -82 -224 43 -90 140 -126 225 -85 90
43 126 140 85 225 -43 90 -144 127 -228 84z"/>
<path d="M5332 12749 c-87 -44 -122 -141 -82 -224 43 -90 140 -126 225 -85 90
43 126 140 85 225 -43 90 -144 127 -228 84z"/>
<path d="M6132 12749 c-87 -44 -122 -141 -82 -224 43 -90 140 -126 225 -85 90
43 126 140 85 225 -43 90 -144 127 -228 84z"/>
<path d="M6932 12749 c-87 -44 -122 -141 -82 -224 43 -90 140 -126 225 -85 90
43 126 140 85 225 -43 90 -144 127 -228 84z"/>
<path d="M8532 12749 c-87 -44 -122 -141 -82 -224 43 -90 140 -126 225 -85 90
43 126 140 85 225 -43 90 -144 127 -228 84z"/>
<path d="M4532 12349 c-87 -44 -122 -141 -82 -224 43 -90 140 -126 225 -85 90
43 126 140 85 225 -43 90 -144 127 -228 84z"/>
<path d="M4932 12349 c-87 -44 -122 -141 -82 -224 43 -90 140 -126 225 -85 90
43 126 140 85 225 -43 90 -144 127 -228 84z"/>
<path d="M5332 12349 c-87 -44 -122 -141 -82 -224 43 -90 140 -126 225 -85 90
43 126 140 85 225 -43 90 -144 127 -228 84z"/>
<path d="M7732 12349 c-87 -44 -122 -141 -82 -224 43 -90 140 -126 225 -85 90
43 126 140 85 225 -43 90 -144 127 -228 84z"/>
<path d="M8132 12349 c-87 -44 -122 -141 -82 -224 43 -90 140 -126 225 -85 90
43 126 140 85 225 -43 90 -144 127 -228 84z"/>
<path d="M8532 12349 c-87 -44 -122 -141 -82 -224 43 -90 140 -126 225 -85 90
43 126 140 85 225 -43 90 -144 127 -228 84z"/>
<path d="M8932 12349 c-87 -44 -122 -141 -82 -224 43 -90 140 -126 225 -85 90
43 126 140 85 225 -43 90 -144 127 -228 84z"/>
<path d="M9332 12349 c-87 -44 -122 -141 -82 -224 43 -90 140 -126 225 -85 90
43 126 140 85 225 -43 90 -144 127 -228 84z"/>
<path d="M4532 11949 c-87 -44 -122 -141 -82 -224 43 -90 140 -126 225 -85 90
43 126 140 85 225 -43 90 -144 127 -228 84z"/>
<path d="M5332 11949 c-87 -44 -122 -141 -82 -224 43 -90 140 -126 225 -85 90
43 126 140 85 225 -43 90 -144 127 -228 84z"/>
<path d="M5732 11949 c-87 -44 -122 -141 -82 -224 43 -90 140 -126 225 -85 90
43 126 140 85 225 -43 90 -144 127 -228 84z"/>
<path d="M6532 11949 c-87 -44 -122 -141 -82 -224 43 -90 140 -126 225 -85 90
43 126 140 85 225 -43 90 -144 127 -228 84z"/>
<path d="M8132 11949 c-87 -44 -122 -141 -82 -224 43 -90 140 -126 225 -85 90
43 126 140 85 225 -43 90 -144 127 -228 84z"/>
<path d="M8532 11949 c-87 -44 -122 -141 -82 -224 43 -90 140 -126 225 -85 90
43 126 140 85 225 -43 90 -144 127 -228 84z"/>
<path d="M8932 11949 c-87 -44 -122 -141 -82 -224 43 -90 140 -126 225 -85 90
43 126 140 85 225 -43 90 -144 127 -228 84z"/>
<path d="M9332 11949 c-87 -44 -122 -141 -82 -224 43 -90 140 -126 225 -85 90
43 126 140 85 225 -43 90 -144 127 -228 84z"/>
<path d="M4532 11549 c-87 -44 -122 -141 -82 -224 43 -90 140 -126 225 -85 90
43 126 140 85 225 -43 90 -144 127 -228 84z"/>
<path d="M4932 11549 c-87 -44 -122 -141 -82 -224 43 -90 140 -126 225 -85 90
43 126 140 85 225 -43 90 -144 127 -228 84z"/>
<path d="M5732 11549 c-87 -44 -122 -141 -82 -224 43 -90 140 -126 225 -85 90
43 126 140 85 225 -43 90 -144 127 -228 84z"/>
<path d="M6932 11549 c-87 -44 -122 -141 -82 -224 43 -90 140 -126 225 -85 90
43 126 140 85 225 -43 90 -144 127 -228 84z"/>
<path d="M7732 11549 c-87 -44 -122 -141 -82 -224 43 -90 140 -126 225 -85 90
43 126 140 85 225 -43 90 -144 127 -228 84z"/>
<path d="M8532 11549 c-87 -44 -122 -141 -82 -224 43 -90 140 -126 225 -85 90
43 126 140 85 225 -43 90 -144 127 -228 84z"/>
<path d="M8932 11549 c-87 -44 -122 -141 -82 -224 43 -90 140 -126 225 -85 90
43 126 140 85 225 -43 90 -144 127 -228 84z"/>
<path d="M6532 11149 c-87 -44 -122 -141 -82 -224 43 -90 140 -126 225 -85 90
43 126 140 85 225 -43 90 -144 127 -228 84z"/>
<path d="M6932 11149 c-87 -44 -122 -141 -82 -224 43 -90 140 -126 225 -85 90
43 126 140 85 225 -43 90 -144 127 -228 84z"/>
<path d="M7332 11149 c-87 -44 -122 -141 -82 -224 43 -90 140 -126 225 -85 90
43 126 140 85 225 -43 90 -144 127 -228 84z"/>
<path d="M8132 11149 c-87 -44 -122 -141 -82 -224 43 -90 140 -126 225 -85 90
43 126 140 85 225 -43 90 -144 127 -228 84z"/>
<path d="M8532 11149 c-87 -44 -122 -141 -82 -224 43 -90 140 -126 225 -85 90
43 126 140 85 225 -43 90 -144 127 -228 84z"/>
<path d="M9332 11149 c-87 -44 -122 -141 -82 -224 43 -90 140 -126 225 -85 90
43 126 140 85 225 -43 90 -144 127 -228 84z"/>
<path d="M4532 10749 c-87 -44 -122 -141 -82 -224 43 -90 140 -126 225 -85 90
43 126 140 85 225 -43 90 -144 127 -228 84z"/>
<path d="M5732 10749 c-87 -44 -122 -141 -82 -224 43 -90 140 -126 225 -85 90
43 126 140 85 225 -43 90 -144 127 -228 84z"/>
<path d="M6132 10749 c-87 -44 -122 -141 -82 -224 43 -90 140 -126 225 -85 90
43 126 140 85 225 -43 90 -144 127 -228 84z"/>
<path d="M6532 10749 c-87 -44 -122 -141 -82 -224 43 -90 140 -126 225 -85 90
43 126 140 85 225 -43 90 -144 127 -228 84z"/>
<path d="M6932 10749 c-87 -44 -122 -141 -82 -224 43 -90 140 -126 225 -85 90
43 126 140 85 225 -43 90 -144 127 -228 84z"/>
<path d="M7732 10749 c-87 -44 -122 -141 -82 -224 43 -90 140 -126 225 -85 90
43 126 140 85 225 -43 90 -144 127 -228 84z"/>
<path d="M8132 10749 c-87 -44 -122 -141 -82 -224 43 -90 140 -126 225 -85 90
43 126 140 85 225 -43 90 -144 127 -228 84z"/>
<path d="M8932 10749 c-87 -44 -122 -141 -82 -224 43 -90 140 -126 225 -85 90
43 126 140 85 225 -43 90 -144 127 -228 84z"/>
<path d="M4532 10349 c-87 -44 -122 -141 -82 -224 43 -90 140 -126 225 -85 90
43 126 140 85 225 -43 90 -144 127 -228 84z"/>
<path d="M5332 10349 c-87 -44 -122 -141 -82 -224 43 -90 140 -126 225 -85 90
43 126 140 85 225 -43 90 -144 127 -228 84z"/>
<path d="M6132 10349 c-87 -44 -122 -141 -82 -224 43 -90 140 -126 225 -85 90
43 126 140 85 225 -43 90 -144 127 -228 84z"/>
<path d="M6932 10349 c-87 -44 -122 -141 -82 -224 43 -90 140 -126 225 -85 90
43 126 140 85 225 -43 90 -144 127 -228 84z"/>
<path d="M7732 10349 c-87 -44 -122 -141 -82 -224 43 -90 140 -126 225 -85 90
43 126 140 85 225 -43 90 -144 127 -228 84z"/>
<path d="M8532 10349 c-87 -44 -122 -141 -82 -224 43 -90 140 -126 225 -85 90
43 126 140 85 225 -43 90 -144 127 -228 84z"/>
<path d="M9332 10349 c-87 -44 -122 -141 -82 -224 43 -90 140 -126 225 -85 90
43 126 140 85 225 -43 90 -144 127 -228 84z"/>
<path d="M4932 9949 c-87 -44 -122 -141 -82 -224 43 -90 140 -126 225 -85 90
43 126 140 85 225 -43 90 -144 127 -228 84z"/>
<path d="M6132 9949 c-87 -44 -122 -141 -82 -224 43 -90 140 -126 225 -85 90
43 126 140 85 225 -43 90 -144 127 -228 84z"/>
<path d="M6932 9949 c-87 -44 -122 -141 -82 -224 43 -90 140 -126 225 -85 90
43 126 140 85 225 -43 90 -144 127 -228 84z"/>
<path d="M8132 9949 c-87 -44 -122 -141 -82 -224 43 -90 140 -126 225 -85 90
43 126 140 85 225 -43 90 -144 127 -228 84z"/>
<path d="M8532 9949 c-87 -44 -122 -141 -82 -224 43 -90 140 -126 225 -85 90
43 126 140 85 225 -43 90 -144 127 -228 84z"/>
<path d="M9332 9949 c-87 -44 -122 -141 -82 -224 43 -90 140 -126 225 -85 90
43 126 140 85 225 -43 90 -144 127 -228 84z"/>
<path d="M1332 9549 c-87 -44 -122 -141 -82 -224 43 -90 140 -126 225 -85 90
43 126 140 85 225 -43 90 -144 127 -228 84z"/>
<path d="M1732 9549 c-87 -44 -122 -141 -82 -224 43 -90 140 -126 225 -85 90
43 126 140 85 225 -43 90 -144 127 -228 84z"/>
<path d="M2932 9549 c-87 -44 -122 -141 -82 -224 43 -90 140 -126 225 -85 90
43 126 140 85 225 -43 90 -144 127 -228 84z"/>
<path d="M3332 9549 c-87 -44 -122 -141 -82 -224 43 -90 140 -126 225 -85 90
43 126 140 85 225 -43 90 -144 127 -228 84z"/>
<path d="M3732 9549 c-87 -44 -122 -141 -82 -224 43 -90 140 -126 225 -85 90
43 126 140 85 225 -43 90 -144 127 -228 84z"/>
<path d="M5732 9549 c-87 -44 -122 -141 -82 -224 43 -90 140 -126 225 -85 90
43 126 140 85 225 -43 90 -144 127 -228 84z"/>
<path d="M6532 9549 c-87 -44 -122 -141 -82 -224 43 -90 140 -126 225 -85 90
43 126 140 85 225 -43 90 -144 127 -228 84z"/>
<path d="M6932 9549 c-87 -44 -122 -141 -82 -224 43 -90 140 -126 225 -85 90
43 126 140 85 225 -43 90 -144 127 -228 84z"/>
<path d="M7332 9549 c-87 -44 -122 -141 -82 -224 43 -90 140 -126 225 -85 90
43 126 140 85 225 -43 90 -144 127 -228 84z"/>
<path d="M8132 9549 c-87 -44 -122 -141 -82 -224 43 -90 140 -126 225 -85 90
43 126 140 85 225 -43 90 -144 127 -228 84z"/>
<path d="M9332 9549 c-87 -44 -122 -141 -82 -224 43 -90 140 -126 225 -85 90
43 126 140 85 225 -43 90 -144 127 -228 84z"/>
<path d="M10532 9549 c-87 -44 -122 -141 -82 -224 43 -90 140 -126 225 -85 90
43 126 140 85 225 -43 90 -144 127 -228 84z"/>
<path d="M11332 9549 c-87 -44 -122 -141 -82 -224 43 -90 140 -126 225 -85 90
43 126 140 85 225 -43 90 -144 127 -228 84z"/>
<path d="M11732 9549 c-87 -44 -122 -141 -82 -224 43 -90 140 -126 225 -85 90
43 126 140 85 225 -43 90 -144 127 -228 84z"/>
<path d="M12132 9549 c-87 -44 -122 -141 -82 -224 43 -90 140 -126 225 -85 90
43 126 140 85 225 -43 90 -144 127 -228 84z"/>
<path d="M12532 9549 c-87 -44 -122 -141 -82 -224 43 -90 140 -126 225 -85 90
43 126 140 85 225 -43 90 -144 127 -228 84z"/>
<path d="M1732 9149 c-87 -44 -122 -141 -82 -224 43 -90 140 -126 225 -85 90
43 126 140 85 225 -43 90 -144 127 -228 84z"/>
<path d="M4132 9149 c-87 -44 -122 -141 -82 -224 43 -90 140 -126 225 -85 90
43 126 140 85 225 -43 90 -144 127 -228 84z"/>
<path d="M4932 9149 c-87 -44 -122 -141 -82 -224 43 -90 140 -126 225 -85 90
43 126 140 85 225 -43 90 -144 127 -228 84z"/>
<path d="M5332 9149 c-87 -44 -122 -141 -82 -224 43 -90 140 -126 225 -85 90
43 126 140 85 225 -43 90 -144 127 -228 84z"/>
<path d="M6132 9149 c-87 -44 -122 -141 -82 -224 43 -90 140 -126 225 -85 90
43 126 140 85 225 -43 90 -144 127 -228 84z"/>
<path d="M7332 9149 c-87 -44 -122 -141 -82 -224 43 -90 140 -126 225 -85 90
43 126 140 85 225 -43 90 -144 127 -228 84z"/>
<path d="M7732 9149 c-87 -44 -122 -141 -82 -224 43 -90 140 -126 225 -85 90
43 126 140 85 225 -43 90 -144 127 -228 84z"/>
<path d="M8132 9149 c-87 -44 -122 -141 -82 -224 43 -90 140 -126 225 -85 90
43 126 140 85 225 -43 90 -144 127 -228 84z"/>
<path d="M8532 9149 c-87 -44 -122 -141 -82 -224 43 -90 140 -126 225 -85 90
43 126 140 85 225 -43 90 -144 127 -228 84z"/>
<path d="M10132 9149 c-87 -44 -122 -141 -82 -224 43 -90 140 -126 225 -85 90
43 126 140 85 225 -43 90 -144 127 -228 84z"/>
<path d="M10532 9149 c-87 -44 -122 -141 -82 -224 43 -90 140 -126 225 -85 90
43 126 140 85 225 -43 90 -144 127 -228 84z"/>
<path d="M10932 9149 c-87 -44 -122 -141 -82 -224 43 -90 140 -126 225 -85 90
43 126 140 85 225 -43 90 -144 127 -228 84z"/>
<path d="M11332 9149 c-87 -44 -122 -141 -82 -224 43 -90 140 -126 225 -85 90
43 126 140 85 225 -43 90 -144 127 -228 84z"/>
<path d="M11732 9149 c-87 -44 -122 -141 -82 -224 43 -90 140 -126 225 -85 90
43 126 140 85 225 -43 90 -144 127 -228 84z"/>
<path d="M12132 9149 c-87 -44 -122 -141 -82 -224 43 -90 140 -126 225 -85 90
43 126 140 85 225 -43 90 -144 127 -228 84z"/>
<path d="M12532 9149 c-87 -44 -122 -141 -82 -224 43 -90 140 -126 225 -85 90
43 126 140 85 225 -43 90 -144 127 -228 84z"/>
<path d="M2132 8749 c-87 -44 -122 -141 -82 -224 43 -90 140 -126 225 -85 90
43 126 140 85 225 -43 90 -144 127 -228 84z"/>
<path d="M2532 8749 c-87 -44 -122 -141 -82 -224 43 -90 140 -126 225 -85 90
43 126 140 85 225 -43 90 -144 127 -228 84z"/>
<path d="M2932 8749 c-87 -44 -122 -141 -82 -224 43 -90 140 -126 225 -85 90
43 126 140 85 225 -43 90 -144 127 -228 84z"/>
<path d="M3732 8749 c-87 -44 -122 -141 -82 -224 43 -90 140 -126 225 -85 90
43 126 140 85 225 -43 90 -144 127 -228 84z"/>
<path d="M4132 8749 c-87 -44 -122 -141 -82 -224 43 -90 140 -126 225 -85 90
43 126 140 85 225 -43 90 -144 127 -228 84z"/>
<path d="M5732 8749 c-87 -44 -122 -141 -82 -224 43 -90 140 -126 225 -85 90
43 126 140 85 225 -43 90 -144 127 -228 84z"/>
<path d="M6132 8749 c-87 -44 -122 -141 -82 -224 43 -90 140 -126 225 -85 90
43 126 140 85 225 -43 90 -144 127 -228 84z"/>
<path d="M6532 8749 c-87 -44 -122 -141 -82 -224 43 -90 140 -126 225 -85 90
43 126 140 85 225 -43 90 -144 127 -228 84z"/>
<path d="M6932 8749 c-87 -44 -122 -141 -82 -224 43 -90 140 -126 225 -85 90
43 126 140 85 225 -43 90 -144 127 -228 84z"/>
<path d="M7332 8749 c-87 -44 -122 -141 -82 -224 43 -90 140 -126 225 -85 90
43 126 140 85 225 -43 90 -144 127 -228 84z"/>
<path d="M8132 8749 c-87 -44 -122 -141 -82 -224 43 -90 140 -126 225 -85 90
43 126 140 85 225 -43 90 -144 127 -228 84z"/>
<path d="M8532 8749 c-87 -44 -122 -141 -82 -224 43 -90 140 -126 225 -85 90
43 126 140 85 225 -43 90 -144 127 -228 84z"/>
<path d="M9332 8749 c-87 -44 -122 -141 -82 -224 43 -90 140 -126 225 -85 90
43 126 140 85 225 -43 90 -144 127 -228 84z"/>
<path d="M9732 8749 c-87 -44 -122 -141 -82 -224 43 -90 140 -126 225 -85 90
43 126 140 85 225 -43 90 -144 127 -228 84z"/>
<path d="M10532 8749 c-87 -44 -122 -141 -82 -224 43 -90 140 -126 225 -85 90
43 126 140 85 225 -43 90 -144 127 -228 84z"/>
<path d="M10932 8749 c-87 -44 -122 -141 -82 -224 43 -90 140 -126 225 -85 90
43 126 140 85 225 -43 90 -144 127 -228 84z"/>
<path d="M12532 8749 c-87 -44 -122 -141 -82 -224 43 -90 140 -126 225 -85 90
43 126 140 85 225 -43 90 -144 127 -228 84z"/>
<path d="M1732 8349 c-87 -44 -122 -141 -82 -224 43 -90 140 -126 225 -85 90
43 126 140 85 225 -43 90 -144 127 -228 84z"/>
<path d="M2932 8349 c-87 -44 -122 -141 -82 -224 43 -90 140 -126 225 -85 90
43 126 140 85 225 -43 90 -144 127 -228 84z"/>
<path d="M4132 8349 c-87 -44 -122 -141 -82 -224 43 -90 140 -126 225 -85 90
43 126 140 85 225 -43 90 -144 127 -228 84z"/>
<path d="M4532 8349 c-87 -44 -122 -141 -82 -224 43 -90 140 -126 225 -85 90
43 126 140 85 225 -43 90 -144 127 -228 84z"/>
<path d="M5332 8349 c-87 -44 -122 -141 -82 -224 43 -90 140 -126 225 -85 90
43 126 140 85 225 -43 90 -144 127 -228 84z"/>
<path d="M5732 8349 c-87 -44 -122 -141 -82 -224 43 -90 140 -126 225 -85 90
43 126 140 85 225 -43 90 -144 127 -228 84z"/>
<path d="M6532 8349 c-87 -44 -122 -141 -82 -224 43 -90 140 -126 225 -85 90
43 126 140 85 225 -43 90 -144 127 -228 84z"/>
<path d="M8132 8349 c-87 -44 -122 -141 -82 -224 43 -90 140 -126 225 -85 90
43 126 140 85 225 -43 90 -144 127 -228 84z"/>
<path d="M8532 8349 c-87 -44 -122 -141 -82 -224 43 -90 140 -126 225 -85 90
43 126 140 85 225 -43 90 -144 127 -228 84z"/>
<path d="M10132 8349 c-87 -44 -122 -141 -82 -224 43 -90 140 -126 225 -85 90
43 126 140 85 225 -43 90 -144 127 -228 84z"/>
<path d="M10932 8349 c-87 -44 -122 -141 -82 -224 43 -90 140 -126 225 -85 90
43 126 140 85 225 -43 90 -144 127 -228 84z"/>
<path d="M11332 8349 c-87 -44 -122 -141 -82 -224 43 -90 140 -126 225 -85 90
43 126 140 85 225 -43 90 -144 127 -228 84z"/>
<path d="M12132 8349 c-87 -44 -122 -141 -82 -224 43 -90 140 -126 225 -85 90
43 126 140 85 225 -43 90 -144 127 -228 84z"/>
<path d="M12532 8349 c-87 -44 -122 -141 -82 -224 43 -90 140 -126 225 -85 90
43 126 140 85 225 -43 90 -144 127 -228 84z"/>
<path d="M1732 7949 c-87 -44 -122 -141 -82 -224 43 -90 140 -126 225 -85 90
43 126 140 85 225 -43 90 -144 127 -228 84z"/>
<path d="M2532 7949 c-87 -44 -122 -141 -82 -224 43 -90 140 -126 225 -85 90
43 126 140 85 225 -43 90 -144 127 -228 84z"/>
<path d="M3332 7949 c-87 -44 -122 -141 -82 -224 43 -90 140 -126 225 -85 90
43 126 140 85 225 -43 90 -144 127 -228 84z"/>
<path d="M3732 7949 c-87 -44 -122 -141 -82 -224 43 -90 140 -126 225 -85 90
43 126 140 85 225 -43 90 -144 127 -228 84z"/>
<path d="M4132 7949 c-87 -44 -122 -141 -82 -224 43 -90 140 -126 225 -85 90
43 126 140 85 225 -43 90 -144 127 -228 84z"/>
<path d="M5332 7949 c-87 -44 -122 -141 -82 -224 43 -90 140 -126 225 -85 90
43 126 140 85 225 -43 90 -144 127 -228 84z"/>
<path d="M6132 7949 c-87 -44 -122 -141 -82 -224 43 -90 140 -126 225 -85 90
43 126 140 85 225 -43 90 -144 127 -228 84z"/>
<path d="M6532 7949 c-87 -44 -122 -141 -82 -224 43 -90 140 -126 225 -85 90
43 126 140 85 225 -43 90 -144 127 -228 84z"/>
<path d="M8132 7949 c-87 -44 -122 -141 -82 -224 43 -90 140 -126 225 -85 90
43 126 140 85 225 -43 90 -144 127 -228 84z"/>
<path d="M8532 7949 c-87 -44 -122 -141 -82 -224 43 -90 140 -126 225 -85 90
43 126 140 85 225 -43 90 -144 127 -228 84z"/>
<path d="M8932 7949 c-87 -44 -122 -141 -82 -224 43 -90 140 -126 225 -85 90
43 126 140 85 225 -43 90 -144 127 -228 84z"/>
<path d="M9332 7949 c-87 -44 -122 -141 -82 -224 43 -90 140 -126 225 -85 90
43 126 140 85 225 -43 90 -144 127 -228 84z"/>
<path d="M9732 7949 c-87 -44 -122 -141 -82 -224 43 -90 140 -126 225 -85 90
43 126 140 85 225 -43 90 -144 127 -228 84z"/>
<path d="M12132 7949 c-87 -44 -122 -141 -82 -224 43 -90 140 -126 225 -85 90
43 126 140 85 225 -43 90 -144 127 -228 84z"/>
<path d="M1332 7549 c-87 -44 -122 -141 -82 -224 43 -90 140 -126 225 -85 90
43 126 140 85 225 -43 90 -144 127 -228 84z"/>
<path d="M1732 7549 c-87 -44 -122 -141 -82 -224 43 -90 140 -126 225 -85 90
43 126 140 85 225 -43 90 -144 127 -228 84z"/>
<path d="M2132 7549 c-87 -44 -122 -141 -82 -224 43 -90 140 -126 225 -85 90
43 126 140 85 225 -43 90 -144 127 -228 84z"/>
<path d="M2532 7549 c-87 -44 -122 -141 -82 -224 43 -90 140 -126 225 -85 90
43 126 140 85 225 -43 90 -144 127 -228 84z"/>
<path d="M2932 7549 c-87 -44 -122 -141 -82 -224 43 -90 140 -126 225 -85 90
43 126 140 85 225 -43 90 -144 127 -228 84z"/>
<path d="M4132 7549 c-87 -44 -122 -141 -82 -224 43 -90 140 -126 225 -85 90
43 126 140 85 225 -43 90 -144 127 -228 84z"/>
<path d="M4532 7549 c-87 -44 -122 -141 -82 -224 43 -90 140 -126 225 -85 90
43 126 140 85 225 -43 90 -144 127 -228 84z"/>
<path d="M4932 7549 c-87 -44 -122 -141 -82 -224 43 -90 140 -126 225 -85 90
43 126 140 85 225 -43 90 -144 127 -228 84z"/>
<path d="M6532 7549 c-87 -44 -122 -141 -82 -224 43 -90 140 -126 225 -85 90
43 126 140 85 225 -43 90 -144 127 -228 84z"/>
<path d="M6932 7549 c-87 -44 -122 -141 -82 -224 43 -90 140 -126 225 -85 90
43 126 140 85 225 -43 90 -144 127 -228 84z"/>
<path d="M7332 7549 c-87 -44 -122 -141 -82 -224 43 -90 140 -126 225 -85 90
43 126 140 85 225 -43 90 -144 127 -228 84z"/>
<path d="M7732 7549 c-87 -44 -122 -141 -82 -224 43 -90 140 -126 225 -85 90
43 126 140 85 225 -43 90 -144 127 -228 84z"/>
<path d="M8132 7549 c-87 -44 -122 -141 -82 -224 43 -90 140 -126 225 -85 90
43 126 140 85 225 -43 90 -144 127 -228 84z"/>
<path d="M8532 7549 c-87 -44 -122 -141 -82 -224 43 -90 140 -126 225 -85 90
43 126 140 85 225 -43 90 -144 127 -228 84z"/>
<path d="M10132 7549 c-87 -44 -122 -141 -82 -224 43 -90 140 -126 225 -85 90
43 126 140 85 225 -43 90 -144 127 -228 84z"/>
<path d="M10932 7549 c-87 -44 -122 -141 -82 -224 43 -90 140 -126 225 -85 90
43 126 140 85 225 -43 90 -144 127 -228 84z"/>
<path d="M11332 7549 c-87 -44 -122 -141 -82 -224 43 -90 140 -126 225 -85 90
43 126 140 85 225 -43 90 -144 127 -228 84z"/>
<path d="M11732 7549 c-87 -44 -122 -141 -82 -224 43 -90 140 -126 225 -85 90
43 126 140 85 225 -43 90 -144 127 -228 84z"/>
<path d="M12132 7549 c-87 -44 -122 -141 -82 -224 43 -90 140 -126 225 -85 90
43 126 140 85 225 -43 90 -144 127 -228 84z"/>
<path d="M12532 7549 c-87 -44 -122 -141 -82 -224 43 -90 140 -126 225 -85 90
43 126 140 85 225 -43 90 -144 127 -228 84z"/>
<path d="M3732 7149 c-87 -44 -122 -141 -82 -224 43 -90 140 -126 225 -85 90
43 126 140 85 225 -43 90 -144 127 -228 84z"/>
<path d="M5332 7149 c-87 -44 -122 -141 -82 -224 43 -90 140 -126 225 -85 90
43 126 140 85 225 -43 90 -144 127 -228 84z"/>
<path d="M7332 7149 c-87 -44 -122 -141 -82 -224 43 -90 140 -126 225 -85 90
43 126 140 85 225 -43 90 -144 127 -228 84z"/>
<path d="M7732 7149 c-87 -44 -122 -141 -82 -224 43 -90 140 -126 225 -85 90
43 126 140 85 225 -43 90 -144 127 -228 84z"/>
<path d="M8532 7149 c-87 -44 -122 -141 -82 -224 43 -90 140 -126 225 -85 90
43 126 140 85 225 -43 90 -144 127 -228 84z"/>
<path d="M10932 7149 c-87 -44 -122 -141 -82 -224 43 -90 140 -126 225 -85 90
43 126 140 85 225 -43 90 -144 127 -228 84z"/>
<path d="M11332 7149 c-87 -44 -122 -141 -82 -224 43 -90 140 -126 225 -85 90
43 126 140 85 225 -43 90 -144 127 -228 84z"/>
<path d="M11732 7149 c-87 -44 -122 -141 -82 -224 43 -90 140 -126 225 -85 90
43 126 140 85 225 -43 90 -144 127 -228 84z"/>
<path d="M12532 7149 c-87 -44 -122 -141 -82 -224 43 -90 140 -126 225 -85 90
43 126 140 85 225 -43 90 -144 127 -228 84z"/>
<path d="M2132 6749 c-87 -44 -122 -141 -82 -224 43 -90 140 -126 225 -85 90
43 126 140 85 225 -43 90 -144 127 -228 84z"/>
<path d="M4532 6749 c-87 -44 -122 -141 -82 -224 43 -90 140 -126 225 -85 90
43 126 140 85 225 -43 90 -144 127 -228 84z"/>
<path d="M5332 6749 c-87 -44 -122 -141 -82 -224 43 -90 140 -126 225 -85 90
43 126 140 85 225 -43 90 -144 127 -228 84z"/>
<path d="M6132 6749 c-87 -44 -122 -141 -82 -224 43 -90 140 -126 225 -85 90
43 126 140 85 225 -43 90 -144 127 -228 84z"/>
<path d="M6932 6749 c-87 -44 -122 -141 -82 -224 43 -90 140 -126 225 -85 90
43 126 140 85 225 -43 90 -144 127 -228 84z"/>
<path d="M8132 6749 c-87 -44 -122 -141 -82 -224 43 -90 140 -126 225 -85 90
43 126 140 85 225 -43 90 -144 127 -228 84z"/>
<path d="M8532 6749 c-87 -44 -122 -141 -82 -224 43 -90 140 -126 225 -85 90
43 126 140 85 225 -43 90 -144 127 -228 84z"/>
<path d="M8932 6749 c-87 -44 -122 -141 -82 -224 43 -90 140 -126 225 -85 90
43 126 140 85 225 -43 90 -144 127 -228 84z"/>
<path d="M9732 6749 c-87 -44 -122 -141 -82 -224 43 -90 140 -126 225 -85 90
43 126 140 85 225 -43 90 -144 127 -228 84z"/>
<path d="M12132 6749 c-87 -44 -122 -141 -82 -224 43 -90 140 -126 225 -85 90
43 126 140 85 225 -43 90 -144 127 -228 84z"/>
<path d="M12532 6749 c-87 -44 -122 -141 -82 -224 43 -90 140 -126 225 -85 90
43 126 140 85 225 -43 90 -144 127 -228 84z"/>
<path d="M1732 6349 c-87 -44 -122 -141 -82 -224 43 -90 140 -126 225 -85 90
43 126 140 85 225 -43 90 -144 127 -228 84z"/>
<path d="M3332 6349 c-87 -44 -122 -141 -82 -224 43 -90 140 -126 225 -85 90
43 126 140 85 225 -43 90 -144 127 -228 84z"/>
<path d="M3732 6349 c-87 -44 -122 -141 -82 -224 43 -90 140 -126 225 -85 90
43 126 140 85 225 -43 90 -144 127 -228 84z"/>
<path d="M4132 6349 c-87 -44 -122 -141 -82 -224 43 -90 140 -126 225 -85 90
43 126 140 85 225 -43 90 -144 127 -228 84z"/>
<path d="M5732 6349 c-87 -44 -122 -141 -82 -224 43 -90 140 -126 225 -85 90
43 126 140 85 225 -43 90 -144 127 -228 84z"/>
<path d="M6532 6349 c-87 -44 -122 -141 -82 -224 43 -90 140 -126 225 -85 90
43 126 140 85 225 -43 90 -144 127 -228 84z"/>
<path d="M6932 6349 c-87 -44 -122 -141 -82 -224 43 -90 140 -126 225 -85 90
43 126 140 85 225 -43 90 -144 127 -228 84z"/>
<path d="M7332 6349 c-87 -44 -122 -141 -82 -224 43 -90 140 -126 225 -85 90
43 126 140 85 225 -43 90 -144 127 -228 84z"/>
<path d="M8132 6349 c-87 -44 -122 -141 -82 -224 43 -90 140 -126 225 -85 90
43 126 140 85 225 -43 90 -144 127 -228 84z"/>
<path d="M8932 6349 c-87 -44 -122 -141 -82 -224 43 -90 140 -126 225 -85 90
43 126 140 85 225 -43 90 -144 127 -228 84z"/>
<path d="M9732 6349 c-87 -44 -122 -141 -82 -224 43 -90 140 -126 225 -85 90
43 126 140 85 225 -43 90 -144 127 -228 84z"/>
<path d="M10532 6349 c-87 -44 -122 -141 -82 -224 43 -90 140 -126 225 -85 90
43 126 140 85 225 -43 90 -144 127 -228 84z"/>
<path d="M12132 6349 c-87 -44 -122 -141 -82 -224 43 -90 140 -126 225 -85 90
43 126 140 85 225 -43 90 -144 127 -228 84z"/>
<path d="M1332 5949 c-87 -44 -122 -141 -82 -224 43 -90 140 -126 225 -85 90
43 126 140 85 225 -43 90 -144 127 -228 84z"/>
<path d="M2532 5949 c-87 -44 -122 -141 -82 -224 43 -90 140 -126 225 -85 90
43 126 140 85 225 -43 90 -144 127 -228 84z"/>
<path d="M4532 5949 c-87 -44 -122 -141 -82 -224 43 -90 140 -126 225 -85 90
43 126 140 85 225 -43 90 -144 127 -228 84z"/>
<path d="M5332 5949 c-87 -44 -122 -141 -82 -224 43 -90 140 -126 225 -85 90
43 126 140 85 225 -43 90 -144 127 -228 84z"/>
<path d="M6132 5949 c-87 -44 -122 -141 -82 -224 43 -90 140 -126 225 -85 90
43 126 140 85 225 -43 90 -144 127 -228 84z"/>
<path d="M7332 5949 c-87 -44 -122 -141 -82 -224 43 -90 140 -126 225 -85 90
43 126 140 85 225 -43 90 -144 127 -228 84z"/>
<path d="M7732 5949 c-87 -44 -122 -141 -82 -224 43 -90 140 -126 225 -85 90
43 126 140 85 225 -43 90 -144 127 -228 84z"/>
<path d="M8132 5949 c-87 -44 -122 -141 -82 -224 43 -90 140 -126 225 -85 90
43 126 140 85 225 -43 90 -144 127 -228 84z"/>
<path d="M8532 5949 c-87 -44 -122 -141 -82 -224 43 -90 140 -126 225 -85 90
43 126 140 85 225 -43 90 -144 127 -228 84z"/>
<path d="M9732 5949 c-87 -44 -122 -141 -82 -224 43 -90 140 -126 225 -85 90
43 126 140 85 225 -43 90 -144 127 -228 84z"/>
<path d="M10132 5949 c-87 -44 -122 -141 -82 -224 43 -90 140 -126 225 -85 90
43 126 140 85 225 -43 90 -144 127 -228 84z"/>
<path d="M10532 5949 c-87 -44 -122 -141 -82 -224 43 -90 140 -126 225 -85 90
43 126 140 85 225 -43 90 -144 127 -228 84z"/>
<path d="M10932 5949 c-87 -44 -122 -141 -82 -224 43 -90 140 -126 225 -85 90
43 126 140 85 225 -43 90 -144 127 -228 84z"/>
<path d="M11332 5949 c-87 -44 -122 -141 -82 -224 43 -90 140 -126 225 -85 90
43 126 140 85 225 -43 90 -144 127 -228 84z"/>
<path d="M12132 5949 c-87 -44 -122 -141 -82 -224 43 -90 140 -126 225 -85 90
43 126 140 85 225 -43 90 -144 127 -228 84z"/>
<path d="M12532 5949 c-87 -44 -122 -141 -82 -224 43 -90 140 -126 225 -85 90
43 126 140 85 225 -43 90 -144 127 -228 84z"/>
<path d="M2132 5549 c-87 -44 -122 -141 -82 -224 43 -90 140 -126 225 -85 90
43 126 140 85 225 -43 90 -144 127 -228 84z"/>
<path d="M2532 5549 c-87 -44 -122 -141 -82 -224 43 -90 140 -126 225 -85 90
43 126 140 85 225 -43 90 -144 127 -228 84z"/>
<path d="M3732 5549 c-87 -44 -122 -141 -82 -224 43 -90 140 -126 225 -85 90
43 126 140 85 225 -43 90 -144 127 -228 84z"/>
<path d="M4132 5549 c-87 -44 -122 -141 -82 -224 43 -90 140 -126 225 -85 90
43 126 140 85 225 -43 90 -144 127 -228 84z"/>
<path d="M4932 5549 c-87 -44 -122 -141 -82 -224 43 -90 140 -126 225 -85 90
43 126 140 85 225 -43 90 -144 127 -228 84z"/>
<path d="M5732 5549 c-87 -44 -122 -141 -82 -224 43 -90 140 -126 225 -85 90
43 126 140 85 225 -43 90 -144 127 -228 84z"/>
<path d="M6132 5549 c-87 -44 -122 -141 -82 -224 43 -90 140 -126 225 -85 90
43 126 140 85 225 -43 90 -144 127 -228 84z"/>
<path d="M6532 5549 c-87 -44 -122 -141 -82 -224 43 -90 140 -126 225 -85 90
43 126 140 85 225 -43 90 -144 127 -228 84z"/>
<path d="M6932 5549 c-87 -44 -122 -141 -82 -224 43 -90 140 -126 225 -85 90
43 126 140 85 225 -43 90 -144 127 -228 84z"/>
<path d="M7332 5549 c-87 -44 -122 -141 -82 -224 43 -90 140 -126 225 -85 90
43 126 140 85 225 -43 90 -144 127 -228 84z"/>
<path d="M8132 5549 c-87 -44 -122 -141 -82 -224 43 -90 140 -126 225 -85 90
43 126 140 85 225 -43 90 -144 127 -228 84z"/>
<path d="M9332 5549 c-87 -44 -122 -141 -82 -224 43 -90 140 -126 225 -85 90
43 126 140 85 225 -43 90 -144 127 -228 84z"/>
<path d="M9732 5549 c-87 -44 -122 -141 -82 -224 43 -90 140 -126 225 -85 90
43 126 140 85 225 -43 90 -144 127 -228 84z"/>
<path d="M10132 5549 c-87 -44 -122 -141 -82 -224 43 -90 140 -126 225 -85 90
43 126 140 85 225 -43 90 -144 127 -228 84z"/>
<path d="M10932 5549 c-87 -44 -122 -141 -82 -224 43 -90 140 -126 225 -85 90
43 126 140 85 225 -43 90 -144 127 -228 84z"/>
<path d="M11732 5549 c-87 -44 -122 -141 -82 -224 43 -90 140 -126 225 -85 90
43 126 140 85 225 -43 90 -144 127 -228 84z"/>
<path d="M12532 5549 c-87 -44 -122 -141 -82 -224 43 -90 140 -126 225 -85 90
43 126 140 85 225 -43 90 -144 127 -228 84z"/>
<path d="M2132 5149 c-87 -44 -122 -141 -82 -224 43 -90 140 -126 225 -85 90
43 126 140 85 225 -43 90 -144 127 -228 84z"/>
<path d="M2532 5149 c-87 -44 -122 -141 -82 -224 43 -90 140 -126 225 -85 90
43 126 140 85 225 -43 90 -144 127 -228 84z"/>
<path d="M3332 5149 c-87 -44 -122 -141 -82 -224 43 -90 140 -126 225 -85 90
43 126 140 85 225 -43 90 -144 127 -228 84z"/>
<path d="M4132 5149 c-87 -44 -122 -141 -82 -224 43 -90 140 -126 225 -85 90
43 126 140 85 225 -43 90 -144 127 -228 84z"/>
<path d="M4932 5149 c-87 -44 -122 -141 -82 -224 43 -90 140 -126 225 -85 90
43 126 140 85 225 -43 90 -144 127 -228 84z"/>
<path d="M5732 5149 c-87 -44 -122 -141 -82 -224 43 -90 140 -126 225 -85 90
43 126 140 85 225 -43 90 -144 127 -228 84z"/>
<path d="M6532 5149 c-87 -44 -122 -141 -82 -224 43 -90 140 -126 225 -85 90
43 126 140 85 225 -43 90 -144 127 -228 84z"/>
<path d="M7332 5149 c-87 -44 -122 -141 -82 -224 43 -90 140 -126 225 -85 90
43 126 140 85 225 -43 90 -144 127 -228 84z"/>
<path d="M7732 5149 c-87 -44 -122 -141 -82 -224 43 -90 140 -126 225 -85 90
43 126 140 85 225 -43 90 -144 127 -228 84z"/>
<path d="M8132 5149 c-87 -44 -122 -141 -82 -224 43 -90 140 -126 225 -85 90
43 126 140 85 225 -43 90 -144 127 -228 84z"/>
<path d="M8932 5149 c-87 -44 -122 -141 -82 -224 43 -90 140 -126 225 -85 90
43 126 140 85 225 -43 90 -144 127 -228 84z"/>
<path d="M9332 5149 c-87 -44 -122 -141 -82 -224 43 -90 140 -126 225 -85 90
43 126 140 85 225 -43 90 -144 127 -228 84z"/>
<path d="M12132 5149 c-87 -44 -122 -141 -82 -224 43 -90 140 -126 225 -85 90
43 126 140 85 225 -43 90 -144 127 -228 84z"/>
<path d="M12532 5149 c-87 -44 -122 -141 -82 -224 43 -90 140 -126 225 -85 90
43 126 140 85 225 -43 90 -144 127 -228 84z"/>
<path d="M1332 4749 c-87 -44 -122 -141 -82 -224 43 -90 140 -126 225 -85 90
43 126 140 85 225 -43 90 -144 127 -228 84z"/>
<path d="M1732 4749 c-87 -44 -122 -141 -82 -224 43 -90 140 -126 225 -85 90
43 126 140 85 225 -43 90 -144 127 -228 84z"/>
<path d="M2932 4749 c-87 -44 -122 -141 -82 -224 43 -90 140 -126 225 -85 90
43 126 140 85 225 -43 90 -144 127 -228 84z"/>
<path d="M3332 4749 c-87 -44 -122 -141 -82 -224 43 -90 140 -126 225 -85 90
43 126 140 85 225 -43 90 -144 127 -228 84z"/>
<path d="M3732 4749 c-87 -44 -122 -141 -82 -224 43 -90 140 -126 225 -85 90
43 126 140 85 225 -43 90 -144 127 -228 84z"/>
<path d="M4932 4749 c-87 -44 -122 -141 -82 -224 43 -90 140 -126 225 -85 90
43 126 140 85 225 -43 90 -144 127 -228 84z"/>
<path d="M5332 4749 c-87 -44 -122 -141 -82 -224 43 -90 140 -126 225 -85 90
43 126 140 85 225 -43 90 -144 127 -228 84z"/>
<path d="M6132 4749 c-87 -44 -122 -141 -82 -224 43 -90 140 -126 225 -85 90
43 126 140 85 225 -43 90 -144 127 -228 84z"/>
<path d="M6532 4749 c-87 -44 -122 -141 -82 -224 43 -90 140 -126 225 -85 90
43 126 140 85 225 -43 90 -144 127 -228 84z"/>
<path d="M7332 4749 c-87 -44 -122 -141 -82 -224 43 -90 140 -126 225 -85 90
43 126 140 85 225 -43 90 -144 127 -228 84z"/>
<path d="M8132 4749 c-87 -44 -122 -141 -82 -224 43 -90 140 -126 225 -85 90
43 126 140 85 225 -43 90 -144 127 -228 84z"/>
<path d="M8932 4749 c-87 -44 -122 -141 -82 -224 43 -90 140 -126 225 -85 90
43 126 140 85 225 -43 90 -144 127 -228 84z"/>
<path d="M9332 4749 c-87 -44 -122 -141 -82 -224 43 -90 140 -126 225 -85 90
43 126 140 85 225 -43 90 -144 127 -228 84z"/>
<path d="M9732 4749 c-87 -44 -122 -141 -82 -224 43 -90 140 -126 225 -85 90
43 126 140 85 225 -43 90 -144 127 -228 84z"/>
<path d="M10132 4749 c-87 -44 -122 -141 -82 -224 43 -90 140 -126 225 -85 90
43 126 140 85 225 -43 90 -144 127 -228 84z"/>
<path d="M10532 4749 c-87 -44 -122 -141 -82 -224 43 -90 140 -126 225 -85 90
43 126 140 85 225 -43 90 -144 127 -228 84z"/>
<path d="M10932 4749 c-87 -44 -122 -141 -82 -224 43 -90 140 -126 225 -85 90
43 126 140 85 225 -43 90 -144 127 -228 84z"/>
<path d="M11332 4749 c-87 -44 -122 -141 -82 -224 43 -90 140 -126 225 -85 90
43 126 140 85 225 -43 90 -144 127 -228 84z"/>
<path d="M12532 4749 c-87 -44 -122 -141 -82 -224 43 -90 140 -126 225 -85 90
43 126 140 85 225 -43 90 -144 127 -228 84z"/>
<path d="M4532 4349 c-87 -44 -122 -141 -82 -224 43 -90 140 -126 225 -85 90
43 126 140 85 225 -43 90 -144 127 -228 84z"/>
<path d="M4932 4349 c-87 -44 -122 -141 -82 -224 43 -90 140 -126 225 -85 90
43 126 140 85 225 -43 90 -144 127 -228 84z"/>
<path d="M5332 4349 c-87 -44 -122 -141 -82 -224 43 -90 140 -126 225 -85 90
43 126 140 85 225 -43 90 -144 127 -228 84z"/>
<path d="M6532 4349 c-87 -44 -122 -141 -82 -224 43 -90 140 -126 225 -85 90
43 126 140 85 225 -43 90 -144 127 -228 84z"/>
<path d="M6932 4349 c-87 -44 -122 -141 -82 -224 43 -90 140 -126 225 -85 90
43 126 140 85 225 -43 90 -144 127 -228 84z"/>
<path d="M7332 4349 c-87 -44 -122 -141 -82 -224 43 -90 140 -126 225 -85 90
43 126 140 85 225 -43 90 -144 127 -228 84z"/>
<path d="M7732 4349 c-87 -44 -122 -141 -82 -224 43 -90 140 -126 225 -85 90
43 126 140 85 225 -43 90 -144 127 -228 84z"/>
<path d="M8532 4349 c-87 -44 -122 -141 -82 -224 43 -90 140 -126 225 -85 90
43 126 140 85 225 -43 90 -144 127 -228 84z"/>
<path d="M8932 4349 c-87 -44 -122 -141 -82 -224 43 -90 140 -126 225 -85 90
43 126 140 85 225 -43 90 -144 127 -228 84z"/>
<path d="M9332 4349 c-87 -44 -122 -141 -82 -224 43 -90 140 -126 225 -85 90
43 126 140 85 225 -43 90 -144 127 -228 84z"/>
<path d="M10932 4349 c-87 -44 -122 -141 -82 -224 43 -90 140 -126 225 -85 90
43 126 140 85 225 -43 90 -144 127 -228 84z"/>
<path d="M12532 4349 c-87 -44 -122 -141 -82 -224 43 -90 140 -126 225 -85 90
43 126 140 85 225 -43 90 -144 127 -228 84z"/>
<path d="M1547 3989 c-73 -11 -186 -69 -232 -120 -51 -57 -94 -149 -105 -226
-13 -92 -13 -2005 0 -2097 13 -84 66 -191 121 -241 57 -51 149 -94 226 -105
91 -13 2005 -13 2096 0 77 11 169 54 226 105 55 50 108 157 121 241 13 93 13
2005 0 2098 -13 84 -66 191 -121 241 -57 51 -149 94 -226 105 -84 12 -2023 11
-2106 -1z m1844 -445 c80 -42 126 -89 171 -176 l33 -63 5 -655 c3 -360 2 -681
-2 -713 -9 -67 -54 -161 -103 -216 -48 -53 -158 -109 -231 -118 -33 -5 -354
-6 -714 -3 l-655 5 -72 39 c-40 21 -88 56 -108 77 -49 55 -94 149 -103 216 -4
32 -5 353 -2 713 l5 655 39 72 c45 84 91 129 178 175 l63 33 655 5 c360 3 681
2 714 -3 36 -4 84 -21 127 -43z"/>
<path d="M2347 3189 c-73 -11 -186 -69 -232 -120 -51 -57 -94 -149 -105 -226
-12 -88 -12 -408 0 -496 11 -77 54 -169 105 -226 50 -55 157 -108 241 -121 89
-12 409 -13 497 0 77 11 169 54 226 105 55 50 108 157 121 241 13 89 13 409 0
498 -13 84 -66 191 -121 241 -57 51 -149 94 -226 105 -81 12 -424 11 -506 -1z"/>
<path d="M10142 3989 c-49 -15 -118 -89 -132 -140 -24 -87 15 -180 97 -230 57
-35 145 -34 201 4 66 43 97 98 97 172 0 50 -5 69 -28 103 -52 80 -149 117
-235 91z"/>
<path d="M4932 3949 c-87 -44 -122 -141 -82 -224 43 -90 140 -126 225 -85 90
43 126 140 85 225 -43 90 -144 127 -228 84z"/>
<path d="M5332 3949 c-87 -44 -122 -141 -82 -224 43 -90 140 -126 225 -85 90
43 126 140 85 225 -43 90 -144 127 -228 84z"/>
<path d="M7332 3949 c-87 -44 -122 -141 -82 -224 43 -90 140 -126 225 -85 90
43 126 140 85 225 -43 90 -144 127 -228 84z"/>
<path d="M8132 3949 c-87 -44 -122 -141 -82 -224 43 -90 140 -126 225 -85 90
43 126 140 85 225 -43 90 -144 127 -228 84z"/>
<path d="M8932 3949 c-87 -44 -122 -141 -82 -224 43 -90 140 -126 225 -85 90
43 126 140 85 225 -43 90 -144 127 -228 84z"/>
<path d="M9332 3949 c-87 -44 -122 -141 -82 -224 43 -90 140 -126 225 -85 90
43 126 140 85 225 -43 90 -144 127 -228 84z"/>
<path d="M10932 3949 c-87 -44 -122 -141 -82 -224 43 -90 140 -126 225 -85 90
43 126 140 85 225 -43 90 -144 127 -228 84z"/>
<path d="M11332 3949 c-87 -44 -122 -141 -82 -224 43 -90 140 -126 225 -85 90
43 126 140 85 225 -43 90 -144 127 -228 84z"/>
<path d="M11732 3949 c-87 -44 -122 -141 -82 -224 43 -90 140 -126 225 -85 90
43 126 140 85 225 -43 90 -144 127 -228 84z"/>
<path d="M12532 3949 c-87 -44 -122 -141 -82 -224 43 -90 140 -126 225 -85 90
43 126 140 85 225 -43 90 -144 127 -228 84z"/>
<path d="M4532 3549 c-87 -44 -122 -141 -82 -224 43 -90 140 -126 225 -85 90
43 126 140 85 225 -43 90 -144 127 -228 84z"/>
<path d="M4932 3549 c-87 -44 -122 -141 -82 -224 43 -90 140 -126 225 -85 90
43 126 140 85 225 -43 90 -144 127 -228 84z"/>
<path d="M5332 3549 c-87 -44 -122 -141 -82 -224 43 -90 140 -126 225 -85 90
43 126 140 85 225 -43 90 -144 127 -228 84z"/>
<path d="M6132 3549 c-87 -44 -122 -141 -82 -224 43 -90 140 -126 225 -85 90
43 126 140 85 225 -43 90 -144 127 -228 84z"/>
<path d="M6932 3549 c-87 -44 -122 -141 -82 -224 43 -90 140 -126 225 -85 90
43 126 140 85 225 -43 90 -144 127 -228 84z"/>
<path d="M7732 3549 c-87 -44 -122 -141 -82 -224 43 -90 140 -126 225 -85 90
43 126 140 85 225 -43 90 -144 127 -228 84z"/>
<path d="M8132 3549 c-87 -44 -122 -141 -82 -224 43 -90 140 -126 225 -85 90
43 126 140 85 225 -43 90 -144 127 -228 84z"/>
<path d="M8532 3549 c-87 -44 -122 -141 -82 -224 43 -90 140 -126 225 -85 90
43 126 140 85 225 -43 90 -144 127 -228 84z"/>
<path d="M8932 3549 c-87 -44 -122 -141 -82 -224 43 -90 140 -126 225 -85 90
43 126 140 85 225 -43 90 -144 127 -228 84z"/>
<path d="M9332 3549 c-87 -44 -122 -141 -82 -224 43 -90 140 -126 225 -85 90
43 126 140 85 225 -43 90 -144 127 -228 84z"/>
<path d="M10932 3549 c-87 -44 -122 -141 -82 -224 43 -90 140 -126 225 -85 90
43 126 140 85 225 -43 90 -144 127 -228 84z"/>
<path d="M12132 3549 c-87 -44 -122 -141 -82 -224 43 -90 140 -126 225 -85 90
43 126 140 85 225 -43 90 -144 127 -228 84z"/>
<path d="M12532 3549 c-87 -44 -122 -141 -82 -224 43 -90 140 -126 225 -85 90
43 126 140 85 225 -43 90 -144 127 -228 84z"/>
<path d="M4532 3149 c-87 -44 -122 -141 -82 -224 43 -90 140 -126 225 -85 90
43 126 140 85 225 -43 90 -144 127 -228 84z"/>
<path d="M4932 3149 c-87 -44 -122 -141 -82 -224 43 -90 140 -126 225 -85 90
43 126 140 85 225 -43 90 -144 127 -228 84z"/>
<path d="M5732 3149 c-87 -44 -122 -141 -82 -224 43 -90 140 -126 225 -85 90
43 126 140 85 225 -43 90 -144 127 -228 84z"/>
<path d="M6532 3149 c-87 -44 -122 -141 -82 -224 43 -90 140 -126 225 -85 90
43 126 140 85 225 -43 90 -144 127 -228 84z"/>
<path d="M6932 3149 c-87 -44 -122 -141 -82 -224 43 -90 140 -126 225 -85 90
43 126 140 85 225 -43 90 -144 127 -228 84z"/>
<path d="M7732 3149 c-87 -44 -122 -141 -82 -224 43 -90 140 -126 225 -85 90
43 126 140 85 225 -43 90 -144 127 -228 84z"/>
<path d="M8132 3149 c-87 -44 -122 -141 -82 -224 43 -90 140 -126 225 -85 90
43 126 140 85 225 -43 90 -144 127 -228 84z"/>
<path d="M8932 3149 c-87 -44 -122 -141 -82 -224 43 -90 140 -126 225 -85 90
43 126 140 85 225 -43 90 -144 127 -228 84z"/>
<path d="M9332 3149 c-87 -44 -122 -141 -82 -224 43 -90 140 -126 225 -85 90
43 126 140 85 225 -43 90 -144 127 -228 84z"/>
<path d="M9732 3149 c-87 -44 -122 -141 -82 -224 43 -90 140 -126 225 -85 90
43 126 140 85 225 -43 90 -144 127 -228 84z"/>
<path d="M10132 3149 c-87 -44 -122 -141 -82 -224 43 -90 140 -126 225 -85 90
43 126 140 85 225 -43 90 -144 127 -228 84z"/>
<path d="M10532 3149 c-87 -44 -122 -141 -82 -224 43 -90 140 -126 225 -85 90
43 126 140 85 225 -43 90 -144 127 -228 84z"/>
<path d="M10932 3149 c-87 -44 -122 -141 -82 -224 43 -90 140 -126 225 -85 90
43 126 140 85 225 -43 90 -144 127 -228 84z"/>
<path d="M11332 3149 c-87 -44 -122 -141 -82 -224 43 -90 140 -126 225 -85 90
43 126 140 85 225 -43 90 -144 127 -228 84z"/>
<path d="M12132 3149 c-87 -44 -122 -141 -82 -224 43 -90 140 -126 225 -85 90
43 126 140 85 225 -43 90 -144 127 -228 84z"/>
<path d="M4932 2749 c-87 -44 -122 -141 -82 -224 43 -90 140 -126 225 -85 90
43 126 140 85 225 -43 90 -144 127 -228 84z"/>
<path d="M6132 2749 c-87 -44 -122 -141 -82 -224 43 -90 140 -126 225 -85 90
43 126 140 85 225 -43 90 -144 127 -228 84z"/>
<path d="M7332 2749 c-87 -44 -122 -141 -82 -224 43 -90 140 -126 225 -85 90
43 126 140 85 225 -43 90 -144 127 -228 84z"/>
<path d="M7732 2749 c-87 -44 -122 -141 -82 -224 43 -90 140 -126 225 -85 90
43 126 140 85 225 -43 90 -144 127 -228 84z"/>
<path d="M8132 2749 c-87 -44 -122 -141 -82 -224 43 -90 140 -126 225 -85 90
43 126 140 85 225 -43 90 -144 127 -228 84z"/>
<path d="M8532 2749 c-87 -44 -122 -141 -82 -224 43 -90 140 -126 225 -85 90
43 126 140 85 225 -43 90 -144 127 -228 84z"/>
<path d="M9332 2749 c-87 -44 -122 -141 -82 -224 43 -90 140 -126 225 -85 90
43 126 140 85 225 -43 90 -144 127 -228 84z"/>
<path d="M9732 2749 c-87 -44 -122 -141 -82 -224 43 -90 140 -126 225 -85 90
43 126 140 85 225 -43 90 -144 127 -228 84z"/>
<path d="M10532 2749 c-87 -44 -122 -141 -82 -224 43 -90 140 -126 225 -85 90
43 126 140 85 225 -43 90 -144 127 -228 84z"/>
<path d="M12532 2749 c-87 -44 -122 -141 -82 -224 43 -90 140 -126 225 -85 90
43 126 140 85 225 -43 90 -144 127 -228 84z"/>
<path d="M4932 2349 c-87 -44 -122 -141 -82 -224 43 -90 140 -126 225 -85 90
43 126 140 85 225 -43 90 -144 127 -228 84z"/>
<path d="M5332 2349 c-87 -44 -122 -141 -82 -224 43 -90 140 -126 225 -85 90
43 126 140 85 225 -43 90 -144 127 -228 84z"/>
<path d="M5732 2349 c-87 -44 -122 -141 -82 -224 43 -90 140 -126 225 -85 90
43 126 140 85 225 -43 90 -144 127 -228 84z"/>
<path d="M6132 2349 c-87 -44 -122 -141 -82 -224 43 -90 140 -126 225 -85 90
43 126 140 85 225 -43 90 -144 127 -228 84z"/>
<path d="M6532 2349 c-87 -44 -122 -141 -82 -224 43 -90 140 -126 225 -85 90
43 126 140 85 225 -43 90 -144 127 -228 84z"/>
<path d="M6932 2349 c-87 -44 -122 -141 -82 -224 43 -90 140 -126 225 -85 90
43 126 140 85 225 -43 90 -144 127 -228 84z"/>
<path d="M7332 2349 c-87 -44 -122 -141 -82 -224 43 -90 140 -126 225 -85 90
43 126 140 85 225 -43 90 -144 127 -228 84z"/>
<path d="M11332 2349 c-87 -44 -122 -141 -82 -224 43 -90 140 -126 225 -85 90
43 126 140 85 225 -43 90 -144 127 -228 84z"/>
<path d="M11732 2349 c-87 -44 -122 -141 -82 -224 43 -90 140 -126 225 -85 90
43 126 140 85 225 -43 90 -144 127 -228 84z"/>
<path d="M12132 2349 c-87 -44 -122 -141 -82 -224 43 -90 140 -126 225 -85 90
43 126 140 85 225 -43 90 -144 127 -228 84z"/>
<path d="M12532 2349 c-87 -44 -122 -141 -82 -224 43 -90 140 -126 225 -85 90
43 126 140 85 225 -43 90 -144 127 -228 84z"/>
<path d="M4532 1949 c-87 -44 -122 -141 -82 -224 43 -90 140 -126 225 -85 90
43 126 140 85 225 -43 90 -144 127 -228 84z"/>
<path d="M4932 1949 c-87 -44 -122 -141 -82 -224 43 -90 140 -126 225 -85 90
43 126 140 85 225 -43 90 -144 127 -228 84z"/>
<path d="M5732 1949 c-87 -44 -122 -141 -82 -224 43 -90 140 -126 225 -85 90
43 126 140 85 225 -43 90 -144 127 -228 84z"/>
<path d="M6532 1949 c-87 -44 -122 -141 -82 -224 43 -90 140 -126 225 -85 90
43 126 140 85 225 -43 90 -144 127 -228 84z"/>
<path d="M7332 1949 c-87 -44 -122 -141 -82 -224 43 -90 140 -126 225 -85 90
43 126 140 85 225 -43 90 -144 127 -228 84z"/>
<path d="M8132 1949 c-87 -44 -122 -141 -82 -224 43 -90 140 -126 225 -85 90
43 126 140 85 225 -43 90 -144 127 -228 84z"/>
<path d="M8532 1949 c-87 -44 -122 -141 -82 -224 43 -90 140 -126 225 -85 90
43 126 140 85 225 -43 90 -144 127 -228 84z"/>
<path d="M9332 1949 c-87 -44 -122 -141 -82 -224 43 -90 140 -126 225 -85 90
43 126 140 85 225 -43 90 -144 127 -228 84z"/>
<path d="M10132 1949 c-87 -44 -122 -141 -82 -224 43 -90 140 -126 225 -85 90
43 126 140 85 225 -43 90 -144 127 -228 84z"/>
<path d="M10932 1949 c-87 -44 -122 -141 -82 -224 43 -90 140 -126 225 -85 90
43 126 140 85 225 -43 90 -144 127 -228 84z"/>
<path d="M11332 1949 c-87 -44 -122 -141 -82 -224 43 -90 140 -126 225 -85 90
43 126 140 85 225 -43 90 -144 127 -228 84z"/>
<path d="M12132 1949 c-87 -44 -122 -141 -82 -224 43 -90 140 -126 225 -85 90
43 126 140 85 225 -43 90 -144 127 -228 84z"/>
<path d="M12532 1949 c-87 -44 -122 -141 -82 -224 43 -90 140 -126 225 -85 90
43 126 140 85 225 -43 90 -144 127 -228 84z"/>
<path d="M4532 1549 c-87 -44 -122 -141 -82 -224 43 -90 140 -126 225 -85 90
43 126 140 85 225 -43 90 -144 127 -228 84z"/>
<path d="M4932 1549 c-87 -44 -122 -141 -82 -224 43 -90 140 -126 225 -85 90
43 126 140 85 225 -43 90 -144 127 -228 84z"/>
<path d="M5332 1549 c-87 -44 -122 -141 -82 -224 43 -90 140 -126 225 -85 90
43 126 140 85 225 -43 90 -144 127 -228 84z"/>
<path d="M6132 1549 c-87 -44 -122 -141 -82 -224 43 -90 140 -126 225 -85 90
43 126 140 85 225 -43 90 -144 127 -228 84z"/>
<path d="M6532 1549 c-87 -44 -122 -141 -82 -224 43 -90 140 -126 225 -85 90
43 126 140 85 225 -43 90 -144 127 -228 84z"/>
<path d="M7732 1549 c-87 -44 -122 -141 -82 -224 43 -90 140 -126 225 -85 90
43 126 140 85 225 -43 90 -144 127 -228 84z"/>
<path d="M8132 1549 c-87 -44 -122 -141 -82 -224 43 -90 140 -126 225 -85 90
43 126 140 85 225 -43 90 -144 127 -228 84z"/>
<path d="M9332 1549 c-87 -44 -122 -141 -82 -224 43 -90 140 -126 225 -85 90
43 126 140 85 225 -43 90 -144 127 -228 84z"/>
<path d="M10532 1549 c-87 -44 -122 -141 -82 -224 43 -90 140 -126 225 -85 90
43 126 140 85 225 -43 90 -144 127 -228 84z"/>
<path d="M10932 1549 c-87 -44 -122 -141 -82 -224 43 -90 140 -126 225 -85 90
43 126 140 85 225 -43 90 -144 127 -228 84z"/>
<path d="M12132 1549 c-87 -44 -122 -141 -82 -224 43 -90 140 -126 225 -85 90
43 126 140 85 225 -43 90 -144 127 -228 84z"/>
</g>
</g></svg>
