<svg xmlns="http://www.w3.org/2000/svg" width="104" height="104" viewBox="0 0 104 104"><g transform="translate(-215 -481)"><path d="M52,0A52,52,0,1,1,0,52,52,52,0,0,1,52,0Z" transform="translate(215 481)" fill="#413f59"/><path d="M52,6A46,46,0,1,0,98,52,46.052,46.052,0,0,0,52,6m0-6A52,52,0,1,1,0,52,52,52,0,0,1,52,0Z" transform="translate(215 481)" fill="#2bd5fb"/><text transform="translate(238 551)" fill="#2bd5fb" font-size="53" font-family="NotoSansCJKjp-Medium, Noto Sans CJK JP" font-weight="500"><tspan x="0" y="0">Ps</tspan></text></g></svg>