<svg xmlns="http://www.w3.org/2000/svg" viewBox="0 0 174.781 46.336"><path d="M48.14,61.979a1.049,1.049,0,0,1-.9-.51L39.306,48.24,24.473,52.274a1.049,1.049,0,0,1-1.172-.526L5.967,19.164a1.049,1.049,0,0,1,.784-1.533l14.717-1.978a1.049,1.049,0,0,1,1.042.5L40.261,45.8l20.646-5.616-6.884-9.723a1.049,1.049,0,0,1,.586-1.627l9.658-2.283a1.049,1.049,0,0,1,1.06.363l8.359,10.437a1.049,1.049,0,0,1-.544,1.669l-8.779,2.395L72.05,52.227a1.049,1.049,0,0,1-.51,1.6l-23.068,8.09a1.049,1.049,0,0,1-.334.065ZM41.407,47.666,48.6,59.655l20.951-7.334L62.23,42.006ZM8.528,19.5,24.75,50.026l13.463-3.653L21.068,17.823ZM56.67,30.523,63.124,39.6l8.007-2.179-6.966-8.675Zm28.058-3.169h2.1v22.5h-2.09Zm22.592,6.266V49.849h-2.061V47.041a8.981,8.981,0,0,1-2.947,2.4,8.23,8.23,0,0,1-9.455-1.693,8.375,8.375,0,0,1-2.438-6.077,8.23,8.23,0,0,1,2.461-6,8.02,8.02,0,0,1,5.937-2.49,7.674,7.674,0,0,1,3.618.85,8.23,8.23,0,0,1,2.842,2.55V33.617Zm-8.343,1.614a6.31,6.31,0,0,0-5.566,3.261,6.578,6.578,0,0,0,0,6.556,6.4,6.4,0,0,0,2.359,2.433,6.164,6.164,0,0,0,3.179.871,6.519,6.519,0,0,0,3.247-.865,6.045,6.045,0,0,0,2.359-2.34,6.681,6.681,0,0,0,.828-3.34,6.455,6.455,0,0,0-1.856-4.709,6.148,6.148,0,0,0-4.552-1.874Zm12.251-1.614h2.133v2.372a7.729,7.729,0,0,1,2.017-2.093,3.97,3.97,0,0,1,2.208-.694,3.808,3.808,0,0,1,1.856.554l-1.094,1.775a2.9,2.9,0,0,0-1.13-.282,3.018,3.018,0,0,0-2.016.857,5.422,5.422,0,0,0-1.485,2.661,26.639,26.639,0,0,0-.371,5.606v5.491h-2.133Zm26.142,0V49.849H135.31V47.041a8.982,8.982,0,0,1-2.947,2.4,8.23,8.23,0,0,1-9.455-1.693,8.375,8.375,0,0,1-2.438-6.077,8.226,8.226,0,0,1,2.464-6,8.02,8.02,0,0,1,5.937-2.49,7.674,7.674,0,0,1,3.618.85,8.23,8.23,0,0,1,2.842,2.55V33.617Zm-8.343,1.614a6.31,6.31,0,0,0-5.566,3.261,6.578,6.578,0,0,0,0,6.556,6.4,6.4,0,0,0,2.359,2.433,6.164,6.164,0,0,0,3.179.871,6.519,6.519,0,0,0,3.247-.865,6.045,6.045,0,0,0,2.359-2.34,6.681,6.681,0,0,0,.828-3.34,6.455,6.455,0,0,0-1.854-4.725,6.148,6.148,0,0,0-4.549-1.874Zm11.511-1.614h2.227l5.448,11.828L153.6,33.62h2.227L148.406,49.85h-.371Zm32.124,10.844,1.775.925a9.586,9.586,0,0,1-2,2.747,7.939,7.939,0,0,1-2.553,1.588,8.907,8.907,0,0,1-3.21.545,7.8,7.8,0,0,1-6.213-2.582,8.778,8.778,0,0,1-2.227-5.885,8.592,8.592,0,0,1,1.9-5.487,7.746,7.746,0,0,1,6.434-3.072,8,8,0,0,1,6.627,3.147,8.75,8.75,0,0,1,1.775,5.567H160.355a6.609,6.609,0,0,0,1.807,4.635,5.761,5.761,0,0,0,4.315,1.807,6.939,6.939,0,0,0,2.412-.431,6.439,6.439,0,0,0,1.993-1.143A9.731,9.731,0,0,0,172.66,44.5Zm0-4.357a6.907,6.907,0,0,0-1.217-2.667,5.761,5.761,0,0,0-2.111-1.61,6.477,6.477,0,0,0-2.75-.613,5.938,5.938,0,0,0-4.107,1.536,7.01,7.01,0,0,0-1.9,3.34Zm5.874-12.735h2.09v22.5h-2.09Z" transform="translate(-5.844 -15.643)" fill="#ef533f"/></svg>