<svg xmlns="http://www.w3.org/2000/svg" width="48" height="48"><path fill="#21a366" d="M28 15h16v9H28z"/><path fill="#185c37" d="M44 24H12v16a2 2 0 0 0 2 2h28a2 2 0 0 0 2-2V24z"/><path fill="#107c42" d="M28 24h16v9H28z"/><path fill="#3fa071" d="M12 15h16v9H12z"/><path fill="#33c481" d="M42 6H28v9h16V8a2 2 0 0 0-2-2z"/><path fill="#21a366" d="M14 6h14v9H12V8a2 2 0 0 1 2-2z"/><path d="M22.319 13H12v24h10.319A3.68 3.68 0 0 0 26 33.319V16.681A3.68 3.68 0 0 0 22.319 13z" opacity=".05"/><path d="M22.213 36H12V13.333h10.213a3.12 3.12 0 0 1 3.121 3.121v16.425A3.122 3.122 0 0 1 22.213 36z" opacity=".07"/><path d="M22.106 35H12V13.667h10.106a2.56 2.56 0 0 1 2.56 2.56V32.44a2.56 2.56 0 0 1-2.56 2.56z" opacity=".09"/><linearGradient id="a" x1="4.725" x2="23.055" y1="14.725" y2="33.055" gradientUnits="userSpaceOnUse"><stop offset="0" stop-color="#18884f"/><stop offset="1" stop-color="#0b6731"/></linearGradient><path fill="url(#a)" d="M22 34H6a2 2 0 0 1-2-2V16a2 2 0 0 1 2-2h16a2 2 0 0 1 2 2v16a2 2 0 0 1-2 2z"/><path fill="#fff" d="M9.807 19h2.386l1.936 3.754L16.175 19h2.229l-3.071 5 3.141 5h-2.351l-2.11-3.93L11.912 29H9.526l3.193-5.018L9.807 19z"/></svg>