<svg xmlns="http://www.w3.org/2000/svg" viewBox="0 0 174.781 46.336"><path d="M42.296 46.336a1.049 1.049 0 0 1-.9-.51l-7.934-13.229-14.833 4.034a1.049 1.049 0 0 1-1.172-.526L.123 3.521a1.049 1.049 0 0 1 .784-1.533L15.624.01a1.049 1.049 0 0 1 1.042.5l17.751 29.647 20.646-5.616-6.884-9.723a1.049 1.049 0 0 1 .586-1.627l9.658-2.283a1.049 1.049 0 0 1 1.06.363l8.359 10.437a1.049 1.049 0 0 1-.544 1.669l-8.779 2.395 7.687 10.812a1.049 1.049 0 0 1-.51 1.6l-23.068 8.09a1.049 1.049 0 0 1-.334.065Zm-6.733-14.313 7.193 11.989 20.951-7.334-7.321-10.315ZM2.684 3.857l16.222 30.526 13.463-3.653L15.224 2.18ZM50.826 14.88l6.454 9.077 8.007-2.179-6.966-8.675Zm28.058-3.169h2.1v22.5h-2.09Zm22.592 6.266v16.229h-2.061v-2.808a8.981 8.981 0 0 1-2.947 2.4 8.23 8.23 0 0 1-9.455-1.693 8.375 8.375 0 0 1-2.438-6.077 8.23 8.23 0 0 1 2.461-6 8.02 8.02 0 0 1 5.937-2.49 7.674 7.674 0 0 1 3.618.85 8.23 8.23 0 0 1 2.842 2.55v-2.964Zm-8.343 1.614a6.31 6.31 0 0 0-5.566 3.261 6.578 6.578 0 0 0 0 6.556 6.4 6.4 0 0 0 2.359 2.433 6.164 6.164 0 0 0 3.179.871 6.519 6.519 0 0 0 3.247-.865 6.045 6.045 0 0 0 2.359-2.34 6.681 6.681 0 0 0 .828-3.34 6.455 6.455 0 0 0-1.856-4.709 6.148 6.148 0 0 0-4.552-1.874Zm12.251-1.614h2.133v2.372a7.729 7.729 0 0 1 2.017-2.093 3.97 3.97 0 0 1 2.208-.694 3.808 3.808 0 0 1 1.856.554l-1.094 1.775a2.9 2.9 0 0 0-1.13-.282 3.018 3.018 0 0 0-2.016.857 5.422 5.422 0 0 0-1.485 2.661 26.639 26.639 0 0 0-.371 5.606v5.491h-2.133Zm26.142 0v16.229h-2.06v-2.808a8.982 8.982 0 0 1-2.947 2.4 8.23 8.23 0 0 1-9.455-1.693 8.375 8.375 0 0 1-2.438-6.077 8.226 8.226 0 0 1 2.464-6 8.02 8.02 0 0 1 5.937-2.49 7.674 7.674 0 0 1 3.618.85 8.23 8.23 0 0 1 2.842 2.55v-2.964Zm-8.343 1.614a6.31 6.31 0 0 0-5.566 3.261 6.578 6.578 0 0 0 0 6.556 6.4 6.4 0 0 0 2.359 2.433 6.164 6.164 0 0 0 3.179.871 6.519 6.519 0 0 0 3.247-.865 6.045 6.045 0 0 0 2.359-2.34 6.681 6.681 0 0 0 .828-3.34 6.455 6.455 0 0 0-1.854-4.725 6.148 6.148 0 0 0-4.549-1.874Zm11.511-1.614h2.227l5.448 11.828 5.387-11.828h2.227l-7.421 16.23h-.371Zm32.124 10.844 1.775.925a9.586 9.586 0 0 1-2 2.747 7.939 7.939 0 0 1-2.553 1.588 8.907 8.907 0 0 1-3.21.545 7.8 7.8 0 0 1-6.213-2.582 8.778 8.778 0 0 1-2.227-5.885 8.592 8.592 0 0 1 1.9-5.487 7.746 7.746 0 0 1 6.434-3.072 8 8 0 0 1 6.627 3.147 8.75 8.75 0 0 1 1.775 5.567h-14.615a6.609 6.609 0 0 0 1.807 4.635 5.761 5.761 0 0 0 4.315 1.807 6.939 6.939 0 0 0 2.412-.431 6.439 6.439 0 0 0 1.993-1.143 9.731 9.731 0 0 0 1.778-2.325Zm0-4.357a6.907 6.907 0 0 0-1.217-2.667 5.761 5.761 0 0 0-2.111-1.61 6.477 6.477 0 0 0-2.75-.613 5.938 5.938 0 0 0-4.107 1.536 7.01 7.01 0 0 0-1.9 3.34Zm5.874-12.735h2.09v22.5h-2.09Z" fill="#ef533f"/></svg>