<svg xmlns="http://www.w3.org/2000/svg" viewBox="0 0 231.603 193.644"><g transform="translate(-223.396 -351.268)"><path d="M427.923,523.4H407.047a10.758,10.758,0,1,1,0-21.516h7.176a10.758,10.758,0,1,0,0-21.516H371.165a10.758,10.758,0,1,1,0-21.516h72.416a10.758,10.758,0,1,0,0-21.516h-51.54a10.758,10.758,0,1,1,0-21.516h19.572a10.758,10.758,0,1,0,0-21.516H368.556a10.758,10.758,0,1,1,0-21.516h6.524a10.758,10.758,0,1,0,0-21.516H309.84a10.758,10.758,0,1,0,0,21.516h3.915a10.758,10.758,0,1,1,0,21.516h-7.177a10.758,10.758,0,1,0,0,21.516h-1.3a10.758,10.758,0,1,1,0,21.516H234.161a10.758,10.758,0,1,0,0,21.516h18.266a10.758,10.758,0,1,1,0,21.516h-2.609a10.758,10.758,0,1,0,0,21.516h48.929a10.758,10.758,0,1,1,0,21.516H273.955a10.758,10.758,0,1,0,0,21.516H427.914a10.758,10.758,0,1,0,0-21.516Z" transform="translate(0 0)" fill="#a7cfe8"/><path d="M330.51,926.19l-18.99,23.017,1.793,1.4,18.935-22.838Z" transform="translate(-74.971 -489.111)" fill="#9db6c9"/><path d="M309.9,947.829a.6.6,0,0,1-.367-.126l-1.793-1.394a.6.6,0,0,1-.094-.852l18.991-23.02a.6.6,0,0,1,.863-.061l1.737,1.582a.6.6,0,0,1,.058.823l-18.935,22.832a.6.6,0,0,1-.46.216Zm-.94-2.086.85.661,18.2-21.947-.851-.775-18.2,22.062Z" transform="translate(-71.556 -485.734)" fill="#305d8a"/><path d="M314.27,1127.845l11.244,21.866H327.9L316.176,1126.8Z" transform="translate(-77.31 -659.779)" fill="#9db6c9"/><path d="M324.5,1146.9h-2.391a.6.6,0,0,1-.532-.325l-11.244-21.865a.6.6,0,0,1,.244-.8l1.906-1.046a.6.6,0,0,1,.82.252l11.729,22.911a.6.6,0,0,1-.532.87Zm-2.026-1.2h1.048l-11-21.493-.857.47,10.811,21.024Z" transform="translate(-73.905 -656.37)" fill="#305d8a"/><path d="M408.185,802.033a3.287,3.287,0,1,1-4.649,0A3.289,3.289,0,0,1,408.185,802.033Z" transform="translate(-152.434 -382.667)" fill="#9db6c9"/><path d="M402.458,804.836a3.885,3.885,0,1,1,2.747-1.138A3.86,3.86,0,0,1,402.458,804.836Zm0-6.574a2.689,2.689,0,1,0,1.9.787A2.674,2.674,0,0,0,402.458,798.263Z" transform="translate(-149.032 -379.261)" fill="#305d8a"/><path d="M506.179,896.519a5.776,5.776,0,1,1-8.169,0A5.777,5.777,0,0,1,506.179,896.519Z" transform="translate(-232.187 -462.43)" fill="#fff"/><path d="M498.709,903.564a6.373,6.373,0,1,1,4.507-1.866A6.332,6.332,0,0,1,498.709,903.564Zm0-11.552a5.178,5.178,0,1,0,3.662,1.516A5.146,5.146,0,0,0,498.709,892.012Z" transform="translate(-228.801 -459.018)" fill="#305d8a"/><rect width="11.953" height="4.183" transform="translate(248.567 425.279) rotate(-45)" fill="#9db6c9"/><path d="M391.584,799.139a.6.6,0,0,1-.423-.175l-2.958-2.958a.6.6,0,0,1,0-.845l8.453-8.453a.6.6,0,0,1,.845,0l2.958,2.959a.6.6,0,0,1,0,.845l-8.453,8.452A.6.6,0,0,1,391.584,799.139Zm-2.113-3.556,2.113,2.113,7.607-7.607-2.113-2.114Z" transform="translate(-140.06 -370.299)" fill="#305d8a"/><path d="M422.881,806.168l-15.215,15.214L392.03,802.363l11.833-11.833Z" transform="translate(-143.464 -373.699)" fill="#9db6c9"/><path d="M404.259,818.344h-.029c-.168,0-.325,0-.432-.126l-15.636-18.972a.567.567,0,0,1,.039-.778l11.833-11.822a.6.6,0,0,1,.8-.033l19.018,15.639a.6.6,0,0,1,.043.886l-15.214,15.123c-.112.113-.264.083-.423.083Zm-14.831-19.391,14.874,18.09,14.283-14.283L400.5,787.886l-11.066,11.066Z" transform="translate(-140.057 -370.249)" fill="#305d8a"/><g transform="translate(254.905 417.638)" opacity="0.2"><path d="M450.982,817.954l7.115-7.114-18.063-14.9-5.534,5.531Z" transform="translate(-434.5 -795.94)" fill="#9db6c9"/></g><g transform="translate(253.214 417.677)" opacity="0.2"><rect width="5.379" height="1.195" transform="translate(0 3.804) rotate(-45)" fill="#9db6c9"/></g><g transform="translate(250.995 419.031)" opacity="0.2"><path d="M411.233,805.328a2.761,2.761,0,0,0-2.924,1.333,1.981,1.981,0,0,1,1.375.216Z" transform="translate(-408.309 -805.273)" fill="#9db6c9"/></g><g transform="translate(269.22 437.576)" opacity="0.2"><path d="M530.41,935.383l.9.018,4.648-4.649.422-.422-.036-.809-5.881,5.881" transform="translate(-530.41 -929.52)" fill="#9db6c9"/></g><path d="M293.989,1081.081a4.248,4.248,0,1,1-4.248-4.249A4.248,4.248,0,0,1,293.989,1081.081Z" transform="translate(-52.828 -617.269)" fill="#9db6c9"/><path d="M286.328,1082.555a4.846,4.846,0,1,1,4.846-4.845A4.851,4.851,0,0,1,286.328,1082.555Zm0-8.5a3.651,3.651,0,1,0,3.651,3.651A3.655,3.655,0,0,0,286.328,1074.058Z" transform="translate(-49.416 -613.892)" fill="#305d8a"/><g transform="translate(236.848 460.17)" opacity="0.2"><path d="M313.52,1080.9v7.3a3.651,3.651,0,0,0,0-7.3Z" transform="translate(-313.52 -1080.9)" fill="#9db6c9"/></g><path d="M304.778,1094.166a1.953,1.953,0,1,1-1.953-1.954A1.953,1.953,0,0,1,304.778,1094.166Z" transform="translate(-65.912 -630.353)" fill="#9db6c9"/><path d="M299.413,1093.324a2.551,2.551,0,1,1,2.551-2.55A2.553,2.553,0,0,1,299.413,1093.324Zm0-3.906a1.355,1.355,0,1,0,1.355,1.356A1.357,1.357,0,0,0,299.413,1089.418Z" transform="translate(-62.501 -626.96)" fill="#305d8a"/><path d="M351.362,1284.345a11.764,11.764,0,1,0-23.079,0h23.078Z" transform="translate(-89.041 -781.86)" fill="#9db6c9"/><path d="M347.957,1281.531H324.879a.6.6,0,0,1-.587-.482,12.362,12.362,0,1,1,24.252,0,.6.6,0,0,1-.587.483Zm-22.577-1.2h22.074a11.167,11.167,0,1,0-22.074,0Z" transform="translate(-85.636 -778.45)" fill="#305d8a"/><g transform="translate(245.292 488.44)" opacity="0.2"><path d="M375.589,1270.3a11.712,11.712,0,0,0-5.49,1.363,11.695,11.695,0,0,1,13.668,11.6c0,.367-.021.728-.055,1.085h3.416a11.755,11.755,0,0,0-11.539-14.045Z" transform="translate(-370.099 -1270.3)" fill="#9db6c9"/></g><g transform="translate(238.673 438.434)" opacity="0.2"><path d="M342.95,935.27l-17.2,20.871.516.269,17.057-20.641Z" transform="translate(-325.75 -935.27)" fill="#9db6c9"/></g><g transform="translate(238.367 468.26)" opacity="0.2"><path d="M324.173,1135.1l-.473.209,10.111,19.672h.548Z" transform="translate(-323.7 -1135.1)" fill="#9db6c9"/></g><path d="M1544.146,909.725a3.733,3.733,0,1,1-1.384-5.455A4,4,0,0,1,1544.146,909.725Z" transform="translate(-1117.566 -470.163)" fill="#afddb5"/><path d="M1536.948,909.377a3.868,3.868,0,0,1-1.763-.417,4.042,4.042,0,0,1-2.08-2.675,5.145,5.145,0,0,1,.433-3.582,4.912,4.912,0,0,1,4.255-2.8,3.867,3.867,0,0,1,1.762.417,4.6,4.6,0,0,1,1.648,6.258A4.912,4.912,0,0,1,1536.948,909.377Zm.845-8.276a3.711,3.711,0,0,0-3.188,2.14,3.95,3.95,0,0,0-.342,2.749,2.863,2.863,0,0,0,1.462,1.9,2.68,2.68,0,0,0,1.223.289,3.71,3.71,0,0,0,3.188-2.14,3.409,3.409,0,0,0-1.121-4.652A2.682,2.682,0,0,0,1537.793,901.1Z" transform="translate(-1114.1 -466.75)" fill="#305d8a"/><g transform="translate(419.797 434.008)" opacity="0.38"><path d="M1544.648,905.714c-.074-.038-.152-.068-.228-.1a4.452,4.452,0,0,1-.181,3.761,4.039,4.039,0,0,1-4.987,2.214,3.368,3.368,0,0,0,1.565,1.694,4.282,4.282,0,0,0,3.831-7.57Z" transform="translate(-1539.253 -905.615)" fill="#9db6c9"/></g><path d="M1473.253,924.195c2.42,4.611,1.138,10.05-2.862,12.149s-9.206.063-11.625-4.548-1.139-10.049,2.862-12.15S1470.833,919.584,1473.253,924.195Z" transform="translate(-1049.942 -482.841)" fill="#afddb5"/><path d="M1463.674,934.386a10.232,10.232,0,0,1-8.764-5.695,10.732,10.732,0,0,1-1.029-7.431,8.214,8.214,0,0,1,4.143-5.526,7.813,7.813,0,0,1,3.668-.9,10.233,10.233,0,0,1,8.764,5.695,10.735,10.735,0,0,1,1.029,7.431,8.215,8.215,0,0,1-4.143,5.526A7.816,7.816,0,0,1,1463.674,934.386Zm-1.982-18.351a6.629,6.629,0,0,0-3.112.759,7.036,7.036,0,0,0-3.536,4.741,9.54,9.54,0,0,0,.925,6.6,9.027,9.027,0,0,0,7.7,5.055,6.63,6.63,0,0,0,3.113-.759,7.033,7.033,0,0,0,3.535-4.74,9.536,9.536,0,0,0-.924-6.6A9.028,9.028,0,0,0,1461.692,916.035Z" transform="translate(-1046.602 -479.454)" fill="#305d8a"/><g transform="translate(411.253 435.979)" opacity="0.38"><path d="M1494.068,924.195c-2.42-4.611-7.624-6.647-11.625-4.548-.151.079-.29.172-.434.261a9.446,9.446,0,0,1,7.828,6.8c1.3,4.088.028,8.286-2.867,10.407a7.324,7.324,0,0,0,4.235-.771C1495.207,934.245,1496.488,928.806,1494.068,924.195Z" transform="translate(-1482.01 -918.82)" fill="#9db6c9"/></g><ellipse cx="5.08" cy="3.436" rx="5.08" ry="3.436" transform="translate(405.575 460.406) rotate(18.584)" fill="#afddb5"/><path d="M1438.313,1095.208a7.666,7.666,0,0,1-2.444-.412c-3.018-1.015-4.817-3.489-4.1-5.633.5-1.5,2.122-2.427,4.223-2.427a7.671,7.671,0,0,1,2.444.412c3.018,1.015,4.817,3.489,4.1,5.634C1442.033,1094.278,1440.414,1095.208,1438.313,1095.208Zm-2.318-7.277c-1.548,0-2.76.633-3.089,1.612-.491,1.459,1.041,3.345,3.344,4.119a6.467,6.467,0,0,0,2.064.35c1.548,0,2.76-.633,3.089-1.612.491-1.459-1.041-3.346-3.344-4.12A6.469,6.469,0,0,0,1435.995,1087.93Z" transform="translate(-1027.883 -625.694)" fill="#305d8a"/><g transform="translate(404.34 461.64)" opacity="0.38"><path d="M1441.724,1091.129c-2.659-.894-5.306-.16-5.91,1.638a2.389,2.389,0,0,0-.121.742,6.16,6.16,0,0,1,4.238.01c2.3.774,3.857,2.514,3.841,4.134a2.807,2.807,0,0,0,1.672-1.648C1446.049,1094.207,1444.383,1092.023,1441.724,1091.129Z" transform="translate(-1435.693 -1090.748)" fill="#9db6c9"/></g><path d="M1625.612,1006.969c1.216,1.845-.008,4.8-2.736,6.6s-5.926,1.761-7.142-.084.008-4.8,2.735-6.6S1624.394,1005.124,1625.612,1006.969Z" transform="translate(-1184.121 -556.635)" fill="#afddb5"/><path d="M1615.466,1012.089a4.078,4.078,0,0,1-3.568-1.677c-1.4-2.118-.093-5.45,2.905-7.427a8.175,8.175,0,0,1,4.4-1.424,4.078,4.078,0,0,1,3.568,1.677c1.4,2.118.092,5.449-2.906,7.427a8.17,8.17,0,0,1-4.4,1.424Zm3.74-9.333a6.967,6.967,0,0,0-3.745,1.227c-2.407,1.587-3.582,4.23-2.566,5.771a2.931,2.931,0,0,0,2.571,1.141,6.966,6.966,0,0,0,3.744-1.227c2.407-1.588,3.582-4.23,2.566-5.771A2.931,2.931,0,0,0,1619.206,1002.755Z" transform="translate(-1180.781 -553.232)" fill="#305d8a"/><g transform="translate(431.148 449.36)" opacity="0.38"><path d="M1625.646,1009.448a2.879,2.879,0,0,0-1.115-.974c.65,2.079-1.266,4.586-4.326,5.63a7.2,7.2,0,0,1-4.9.048,2.98,2.98,0,0,0,.46,1.812c1.217,1.845,4.415,1.883,7.143.084S1626.862,1011.293,1625.646,1009.448Z" transform="translate(-1615.303 -1008.474)" fill="#9db6c9"/></g><ellipse cx="13.149" cy="15.987" rx="13.149" ry="15.987" transform="translate(410.178 447.795)" fill="#afddb5"/><path d="M1484.547,1027.131c-7.58,0-13.746-7.44-13.746-16.585s6.166-16.585,13.746-16.585,13.747,7.44,13.747,16.585S1492.128,1027.131,1484.547,1027.131Zm0-31.975c-6.92,0-12.551,6.9-12.551,15.39s5.63,15.39,12.551,15.39,12.551-6.9,12.551-15.39S1491.468,995.156,1484.547,995.156Z" transform="translate(-1061.221 -546.766)" fill="#305d8a"/><g transform="translate(420.637 447.797)" opacity="0.38"><path d="M1547.57,998a10.953,10.953,0,0,0-2.689.336c5.972,1.509,10.459,7.942,10.459,15.651s-4.487,14.142-10.459,15.651a10.951,10.951,0,0,0,2.689.336c7.262,0,13.149-7.158,13.149-15.987S1554.832,998,1547.57,998Z" transform="translate(-1544.881 -998)" fill="#9db6c9"/></g><path d="M1476.23,1197.491a3.389,3.389,0,0,1-3.389,3.388h-23.7a3.389,3.389,0,0,1-3.389-3.388l-2.988-21.913a3.389,3.389,0,0,1,3.389-3.388h29.68a3.389,3.389,0,0,1,3.389,3.388l-2.988,21.913Z" transform="translate(-1037.366 -698.395)" fill="#e4c6aa"/><path d="M1469.439,1198.067h-23.7a3.991,3.991,0,0,1-3.986-3.944l-2.983-21.874a.585.585,0,0,1-.005-.081,3.99,3.99,0,0,1,3.986-3.986h29.68a3.991,3.991,0,0,1,3.987,3.986.626.626,0,0,1-.005.081l-2.983,21.874a3.991,3.991,0,0,1-3.987,3.944Zm-29.483-25.936,2.983,21.869a.631.631,0,0,1,.005.08,2.794,2.794,0,0,0,2.791,2.79h23.7a2.794,2.794,0,0,0,2.791-2.79.59.59,0,0,1,.005-.08l2.983-21.869a2.794,2.794,0,0,0-2.791-2.752h-29.68a2.794,2.794,0,0,0-2.791,2.752Z" transform="translate(-1033.963 -694.985)" fill="#305d8a"/><g transform="translate(432.484 473.797)" opacity="0.38"><path d="M1630.235,1172.2h-2.988a3.389,3.389,0,0,1,3.389,3.388l-2.988,21.912a3.389,3.389,0,0,1-3.389,3.388h2.988a3.389,3.389,0,0,0,3.389-3.388l2.988-21.912A3.389,3.389,0,0,0,1630.235,1172.2Z" transform="translate(-1624.258 -1172.2)" fill="#aa9e80"/></g><path d="M734.407,869.117a3.389,3.389,0,0,1-3.389,3.388H621.251a3.389,3.389,0,0,1-3.389-3.388V795.208a3.389,3.389,0,0,1,3.389-3.388H731.019a3.389,3.389,0,0,1,3.389,3.388Z" transform="translate(-335.589 -374.797)" fill="#fff"/><path d="M727.616,869.691H617.848a3.991,3.991,0,0,1-3.986-3.986V791.8a3.99,3.99,0,0,1,3.986-3.986H727.616A3.991,3.991,0,0,1,731.6,791.8v73.909a3.99,3.99,0,0,1-3.986,3.986ZM617.848,789.006a2.794,2.794,0,0,0-2.791,2.79v73.909a2.794,2.794,0,0,0,2.791,2.791H727.616a2.794,2.794,0,0,0,2.791-2.791V791.8a2.794,2.794,0,0,0-2.791-2.79Z" transform="translate(-332.186 -371.385)" fill="#305d8a"/><g transform="translate(393.739 417.017)" opacity="0.2"><path d="M1365.766,791.779h-1.094a2.69,2.69,0,0,1,2.69,2.69v73.214h1.793V795.167a3.389,3.389,0,0,0-3.389-3.388Z" transform="translate(-1364.672 -791.779)" fill="#9db6c9"/></g><g transform="translate(289.439 421.793)" opacity="0.2"><path d="M768.072,878.366a3.389,3.389,0,0,1-3.389,3.388H669.261a3.389,3.389,0,0,1-3.389-3.388v-51.2a3.389,3.389,0,0,1,3.389-3.388h95.423a3.389,3.389,0,0,1,3.389,3.388Z" transform="translate(-665.872 -823.78)" fill="#9db6c9"/></g><path d="M768.072,905.307a3.389,3.389,0,0,1-3.389,3.388H669.261a3.389,3.389,0,0,1-3.389-3.388V839.168a3.389,3.389,0,0,1,3.389-3.388h95.423a3.389,3.389,0,0,1,3.389,3.388Z" transform="translate(-376.434 -412.196)" fill="#efefef"/><path d="M761.281,905.982H665.858A3.99,3.99,0,0,1,661.872,902V835.858a3.99,3.99,0,0,1,3.986-3.986h95.423a3.99,3.99,0,0,1,3.986,3.986V902a3.991,3.991,0,0,1-3.986,3.986Zm-95.423-72.915a2.794,2.794,0,0,0-2.791,2.79V902a2.794,2.794,0,0,0,2.791,2.79h95.423a2.794,2.794,0,0,0,2.791-2.79V835.858a2.794,2.794,0,0,0-2.791-2.79Z" transform="translate(-373.031 -408.871)" fill="#305d8a"/><g transform="translate(323.582 424.189)" opacity="0.41"><path d="M959.149,839.83H894.63l67.461,47.216V843.218c0-2.541-1.282-3.388-2.942-3.388Z" transform="translate(-894.63 -839.83)" fill="#fff"/></g><path d="M629.728,1304.3H473.5c-1.871,0-2.73,1.6-2.193,3.388.178.6.544,1.985.7,2.589a3.92,3.92,0,0,0,3.886,2.988H627.342a3.92,3.92,0,0,0,3.886-2.988c.154-.6.519-1.991.7-2.589.536-1.792-.322-3.388-2.194-3.388Z" transform="translate(-210.775 -810.786)" fill="#fff"/><path d="M623.917,1310.488H472.466a4.534,4.534,0,0,1-4.465-3.438c-.148-.58-.515-1.974-.692-2.566a3.42,3.42,0,0,1,.394-3.052,2.861,2.861,0,0,1,2.372-1.1H626.3a2.861,2.861,0,0,1,2.372,1.1,3.42,3.42,0,0,1,.394,3.053c-.177.591-.543,1.985-.692,2.565a4.533,4.533,0,0,1-4.465,3.438Zm-153.839-8.965a1.676,1.676,0,0,0-1.414.624,2.252,2.252,0,0,0-.207,2c.184.616.55,2.006.7,2.613a3.315,3.315,0,0,0,3.307,2.538H623.92a3.314,3.314,0,0,0,3.307-2.538c.155-.607.521-2,.7-2.613a2.253,2.253,0,0,0-.207-2,1.677,1.677,0,0,0-1.414-.624H470.083Z" transform="translate(-207.352 -807.407)" fill="#305d8a"/><g transform="translate(324.112 493.514)" opacity="0.2"><path d="M924.855,1304.3H898.18v1.991a3.389,3.389,0,0,0,3.389,3.388h26.094a3.389,3.389,0,0,0,3.389-3.388V1304.3Z" transform="translate(-898.18 -1304.3)" fill="#9db6c9"/></g><path d="M928.411,1304.3H902.36a3.388,3.388,0,0,0,3.363,2.989h24.9a3.388,3.388,0,0,0,3.363-2.989h-5.574Z" transform="translate(-577.624 -810.786)" fill="#9db6c9"/><path d="M927.2,1304.553H902.3a3.985,3.985,0,0,1-3.957-3.516.6.6,0,0,1,.594-.668h31.625a.6.6,0,0,1,.593.668,3.984,3.984,0,0,1-3.956,3.516Zm-27.505-2.988a2.79,2.79,0,0,0,2.605,1.793h24.9a2.79,2.79,0,0,0,2.605-1.793H899.7Z" transform="translate(-574.207 -807.441)" fill="#305d8a"/><g transform="translate(261.751 500.097)" opacity="0.2"><path d="M480.37,1348.4a3.935,3.935,0,0,0,3.367,1.793H635.188a3.935,3.935,0,0,0,3.367-1.793H480.373Z" transform="translate(-480.37 -1348.4)" fill="#9db6c9"/></g><g transform="translate(289.439 423.59)" opacity="0.33"><path d="M764.688,835.82H669.265a3.389,3.389,0,0,0-3.389,3.388V841a3.389,3.389,0,0,1,3.389-3.388h95.423A3.389,3.389,0,0,1,768.076,841v-1.793A3.389,3.389,0,0,0,764.688,835.82Z" transform="translate(-665.876 -835.82)" fill="#9db6c9"/></g><g transform="translate(282.269 491.723)" opacity="0.2"><rect width="114.155" height="1.195" transform="translate(0)" fill="#9db6c9"/></g><circle cx="0.672" cy="0.672" r="0.672" transform="translate(340.174 419.407)" fill="#305d8a"/><g transform="translate(394.027 417.017)" opacity="0.2"><path d="M1366.6,791.807a2.515,2.515,0,0,1,.3-.03h-.3Z" transform="translate(-1366.6 -791.777)" fill="#9db6c9"/></g><path d="M1696.156,1361.586h-2.989a.6.6,0,1,1,0-1.2h2.989a.6.6,0,1,1,0,1.2Zm-7.77,0H1683.6a.6.6,0,1,1,0-1.2h4.781a.6.6,0,1,1,0,1.2Z" transform="translate(-1241.754 -858.505)" fill="#305d8a"/><path d="M569.631,1361.586H374.194a.6.6,0,1,1,0-1.2H569.631a.6.6,0,1,1,0,1.2Z" transform="translate(-127.782 -858.505)" fill="#305d8a"/><path d="M261.169,1361.586a.6.6,0,1,1-.006-1.2h.006a.6.6,0,1,1,0,1.2Zm-4.787,0H251.6a.6.6,0,1,1,0-1.2h4.781a.6.6,0,1,1,0,1.2Zm-9.563,0h-4.781a.6.6,0,1,1,0-1.2h4.781a.6.6,0,1,1,0,1.2Z" transform="translate(-15.351 -858.505)" fill="#305d8a"/><line x2="3.269" y2="1.537" transform="translate(425.132 438.489)" fill="#fff"/><path d="M1574.914,934.371a.591.591,0,0,1-.254-.057l-3.26-1.537a.6.6,0,1,1,.51-1.081l3.26,1.537a.6.6,0,0,1-.256,1.138Z" transform="translate(-1146.513 -493.746)" fill="#305d8a"/><line x1="0.179" y1="2.124" transform="translate(423.102 431.659)" fill="#fff"/><path d="M1558.187,889.192a.6.6,0,0,1-.595-.548l-.177-2.124a.6.6,0,0,1,.546-.645.585.585,0,0,1,.645.546l.177,2.124a.6.6,0,0,1-.546.645Z" transform="translate(-1134.905 -454.811)" fill="#305d8a"/><line x1="2.776" y1="1.597" transform="translate(418.535 434.382)" fill="#fff"/><path d="M1530.217,906.9a.6.6,0,0,1-.3-.08l-2.768-1.6a.6.6,0,1,1,.6-1.035l2.769,1.6a.6.6,0,0,1-.3,1.115Z" transform="translate(-1108.906 -470.329)" fill="#305d8a"/><line y1="0.201" x2="1.313" transform="translate(427.087 435.777)" fill="#fff"/><path d="M1584.7,914.862a.6.6,0,0,1-.09-1.188l1.307-.2a.6.6,0,0,1,.181,1.182l-1.307.2A.621.621,0,0,1,1584.7,914.862Z" transform="translate(-1157.609 -478.286)" fill="#305d8a"/><line y1="2.313" x2="2.015" transform="translate(428.401 456.842)" fill="#fff"/><path d="M1593.494,1058.141a.6.6,0,0,1-.449-.991l2.022-2.307a.6.6,0,1,1,.9.788l-2.022,2.307A.6.6,0,0,1,1593.494,1058.141Z" transform="translate(-1165.093 -598.389)" fill="#305d8a"/><line x2="3.284" y2="2.508" transform="translate(438.565 454.334)" fill="#fff"/><path d="M1664.861,1041.447a.6.6,0,0,1-.363-.123l-3.287-2.516a.6.6,0,0,1,.726-.949l3.287,2.516a.6.6,0,0,1-.364,1.072Z" transform="translate(-1223.012 -584.008)" fill="#305d8a"/><line x2="0.343" y2="1" transform="translate(437.625 457.558)" fill="#fff"/><path d="M1655.647,1061.624a.6.6,0,0,1-.565-.4l-.341-.993a.6.6,0,1,1,1.13-.389l.341.993a.6.6,0,0,1-.565.792Z" transform="translate(-1217.679 -602.468)" fill="#305d8a"/><line x1="0.836" y1="3.015" transform="translate(433.879 448.289)" fill="#fff"/><path d="M1631.038,1001.557a.6.6,0,0,1-.576-.438l-.834-3.005a.6.6,0,1,1,1.152-.32l.835,3.005a.6.6,0,0,1-.416.736A.61.61,0,0,1,1631.038,1001.557Z" transform="translate(-1196.324 -549.655)" fill="#305d8a"/><line y1="1.194" x2="0.597" transform="translate(438.267 447.498)" fill="#fff"/><path d="M1659.6,994.373a.6.6,0,0,1-.534-.865l.6-1.2a.6.6,0,1,1,1.069.535l-.6,1.2A.6.6,0,0,1,1659.6,994.373Z" transform="translate(-1221.33 -545.084)" fill="#305d8a"/><line y1="0.821" x2="3.284" transform="translate(440.655 450.484)" fill="#fff"/><path d="M1675.6,1014.052a.6.6,0,0,1-.143-1.178l3.287-.814a.6.6,0,0,1,.287,1.16l-3.287.814A.617.617,0,0,1,1675.6,1014.052Z" transform="translate(-1234.941 -562.15)" fill="#305d8a"/><line x2="1.09" y2="0.09" transform="translate(441.849 452.901)" fill="#fff"/><path d="M1684.646,1029.44a.466.466,0,0,1-.052,0l-1.1-.094a.6.6,0,0,1-.544-.647.588.588,0,0,1,.647-.544l1.1.094a.6.6,0,0,1-.051,1.193Z" transform="translate(-1241.707 -575.852)" fill="#305d8a"/><line y1="2.988" x2="0.597" transform="translate(413.759 434.349)" fill="#fff"/><path d="M1495.39,908.079a.582.582,0,0,1-.118-.012.6.6,0,0,1-.469-.7l.6-2.988a.6.6,0,0,1,1.172.234l-.6,2.989A.6.6,0,0,1,1495.39,908.079Z" transform="translate(-1081.631 -470.144)" fill="#305d8a"/><line x1="1.448" y1="1.1" transform="translate(409.774 435.979)" fill="#fff"/><path d="M1470.135,917.112a.593.593,0,0,1-.361-.122l-1.449-1.1a.6.6,0,1,1,.722-.951l1.449,1.1a.6.6,0,0,1-.362,1.073Z" transform="translate(-1058.913 -479.435)" fill="#305d8a"/><line x1="3.612" y2="0.896" transform="translate(407.609 449.588)" fill="#fff"/><path d="M1454.2,1008.08a.6.6,0,0,1-.144-1.178l3.614-.9a.6.6,0,0,1,.289,1.16l-3.614.9A.624.624,0,0,1,1454.2,1008.08Z" transform="translate(-1046.586 -556.999)" fill="#305d8a"/><line x1="2.537" y1="0.843" transform="translate(411.221 444.31)" fill="#fff"/><path d="M1480.941,972.679a.6.6,0,0,1-.189-.031l-2.535-.844a.6.6,0,1,1,.377-1.135l2.535.844a.6.6,0,0,1-.188,1.165Z" transform="translate(-1067.182 -526.926)" fill="#305d8a"/><line y1="2.533" x2="0.478" transform="translate(416.072 438.489)" fill="#fff"/><path d="M1510.889,935.364a.58.58,0,0,1-.11-.01.6.6,0,0,1-.479-.7l.47-2.533a.6.6,0,0,1,1.175.218l-.47,2.533A.6.6,0,0,1,1510.889,935.364Z" transform="translate(-1094.817 -493.743)" fill="#305d8a"/><line y1="2.931" x2="1.881" transform="translate(420.834 438.489)" fill="#fff"/><path d="M1542.8,935.765a.6.6,0,0,1-.5-.922l1.893-2.932a.6.6,0,1,1,1,.648l-1.893,2.932A.6.6,0,0,1,1542.8,935.765Z" transform="translate(-1121.962 -493.746)" fill="#305d8a"/><line x2="3.388" y2="0.421" transform="translate(422.326 444.31)" fill="#fff"/><path d="M1556.185,972.252a.536.536,0,0,1-.075,0l-3.387-.422a.6.6,0,0,1,.148-1.186l3.387.422a.6.6,0,0,1-.073,1.191Z" transform="translate(-1130.471 -526.923)" fill="#305d8a"/><line x1="3.209" y1="0.851" transform="translate(404.788 446.003)" fill="#fff"/><path d="M1438.528,984.03a.6.6,0,0,1-.154-.02l-3.2-.85a.6.6,0,1,1,.307-1.155l3.2.85a.6.6,0,0,1-.153,1.175Z" transform="translate(-1030.531 -536.578)" fill="#305d8a"/><line y1="0.19" x2="1.224" transform="translate(406.385 442.627)" fill="#fff"/><path d="M1446,960.743a.6.6,0,0,1-.091-1.188l1.215-.189a.6.6,0,0,1,.183,1.181l-1.214.189a.641.641,0,0,1-.092.007Z" transform="translate(-1039.611 -517.33)" fill="#305d8a"/><line y1="1.697" x2="0.597" transform="translate(417.938 444.731)" fill="#fff"/><path d="M1523.392,976.358a.6.6,0,0,1-.564-.8l.6-1.7a.6.6,0,1,1,1.128.4l-.6,1.7A.6.6,0,0,1,1523.392,976.358Z" transform="translate(-1105.454 -529.331)" fill="#305d8a"/><line x1="1.582" y1="1.537" transform="translate(408.594 438.489)" fill="#fff"/><path d="M1462.4,934.377a.6.6,0,0,1-.417-.17l-1.577-1.537a.6.6,0,1,1,.835-.856l1.577,1.537a.6.6,0,0,1-.417,1.025Z" transform="translate(-1052.224 -493.752)" fill="#305d8a"/><line x2="1" y2="0.403" transform="translate(414.057 448.289)" fill="#fff"/><path d="M1498.415,998.914a.6.6,0,0,1-.222-.043l-1-.4a.6.6,0,0,1,.445-1.11l1,.4a.6.6,0,0,1-.222,1.153Z" transform="translate(-1083.358 -549.625)" fill="#305d8a"/><line x1="2.209" y1="2.881" transform="translate(406.385 460.051)" fill="#fff"/><path d="M1448.253,1080.121a.6.6,0,0,1-.476-.236l-2.2-2.889a.6.6,0,1,1,.952-.724l2.2,2.888a.6.6,0,0,1-.475.96Z" transform="translate(-1039.658 -616.592)" fill="#305d8a"/><line x1="1.045" y1="0.925" transform="translate(404.341 461.499)" fill="#fff"/><path d="M1433.285,1087.857a.6.6,0,0,1-.4-.151l-1.054-.935a.6.6,0,1,1,.793-.894l1.054.935a.6.6,0,0,1-.4,1.045Z" transform="translate(-1027.9 -624.835)" fill="#305d8a"/><line x1="2.687" y2="1.045" transform="translate(403.699 465.275)" fill="#fff"/><path d="M1427.993,1113.324a.6.6,0,0,1-.216-1.155l2.7-1.046a.6.6,0,0,1,.432,1.115l-2.7,1.046A.6.6,0,0,1,1427.993,1113.324Z" transform="translate(-1024.294 -646.407)" fill="#305d8a"/><line x1="1" y2="1.269" transform="translate(405.385 467.648)" fill="#fff"/><path d="M1439.3,1129.472a.589.589,0,0,1-.37-.13.6.6,0,0,1-.1-.839l1-1.265a.6.6,0,0,1,.936.742l-1,1.266A.6.6,0,0,1,1439.3,1129.472Z" transform="translate(-1033.913 -659.959)" fill="#305d8a"/><line x1="0.597" y2="2.896" transform="translate(407.997 466.618)" fill="#fff"/><path d="M1456.789,1124.224a.617.617,0,0,1-.121-.012.6.6,0,0,1-.465-.706l.6-2.889a.6.6,0,0,1,1.171.242l-.6,2.889a.6.6,0,0,1-.585.477Z" transform="translate(-1048.792 -654.113)" fill="#305d8a"/><line y1="3.508" x2="1.194" transform="translate(428.804 447.797)" fill="#fff"/><path d="M1596.193,998.716a.586.586,0,0,1-.193-.032.6.6,0,0,1-.372-.759l1.2-3.5a.6.6,0,0,1,1.131.386l-1.2,3.5a.6.6,0,0,1-.565.4Z" transform="translate(-1167.389 -546.814)" fill="#305d8a"/><line y1="1.436" x2="0.194" transform="translate(426.58 446.854)" fill="#fff"/><path d="M1581.289,990.281a.7.7,0,0,1-.076,0,.6.6,0,0,1-.518-.668l.183-1.441a.6.6,0,0,1,1.186.151l-.183,1.44A.6.6,0,0,1,1581.289,990.281Z" transform="translate(-1154.709 -541.395)" fill="#305d8a"/><line x1="3.015" y1="2.105" transform="translate(413.057 450.887)" fill="#fff"/><path d="M1493.707,1018.03a.6.6,0,0,1-.341-.107l-3.015-2.1a.6.6,0,1,1,.683-.982l3.016,2.1a.6.6,0,0,1-.342,1.089Z" transform="translate(-1077.634 -564.442)" fill="#305d8a"/><line y1="1.793" x2="0.597" transform="translate(420.923 446.303)" fill="#fff"/><path d="M1543.394,986.965a.591.591,0,0,1-.189-.031.6.6,0,0,1-.378-.756l.6-1.793a.6.6,0,1,1,1.133.378l-.6,1.793A.6.6,0,0,1,1543.394,986.965Z" transform="translate(-1122.471 -538.272)" fill="#305d8a"/><line x2="0.91" y2="1.06" transform="translate(419.923 450.887)" fill="#fff"/><path d="M1537.628,1017.009a.6.6,0,0,1-.452-.207l-.907-1.049a.6.6,0,1,1,.9-.782l.906,1.049a.6.6,0,0,1-.452.989Z" transform="translate(-1116.794 -564.465)" fill="#305d8a"/><line x1="0.388" y2="3.105" transform="translate(423.102 450.484)" fill="#fff"/><path d="M1557.989,1016.314a.67.67,0,0,1-.075,0,.6.6,0,0,1-.518-.668l.389-3.1a.6.6,0,0,1,1.186.149l-.389,3.1A.6.6,0,0,1,1557.989,1016.314Z" transform="translate(-1134.887 -562.129)" fill="#305d8a"/><line y1="1.179" x2="2.388" transform="translate(432.58 453.588)" fill="#fff"/><path d="M1621.489,1035.152a.6.6,0,0,1-.266-1.133l2.391-1.181a.6.6,0,0,1,.53,1.072l-2.391,1.181A.6.6,0,0,1,1621.489,1035.152Z" transform="translate(-1188.909 -579.787)" fill="#305d8a"/><line x2="1.791" transform="translate(434.073 456.469)" fill="#fff"/><path d="M1633.274,1053.286h-1.793a.6.6,0,0,1,0-1.2h1.793a.6.6,0,0,1,0,1.2Z" transform="translate(-1197.41 -596.221)" fill="#305d8a"/><line x2="2.388" y2="1.896" transform="translate(409.281 459.155)" fill="#fff"/><path d="M1467.77,1073.2a.6.6,0,0,1-.371-.129l-2.391-1.892a.6.6,0,0,1,.743-.937l2.391,1.892a.6.6,0,0,1-.372,1.066Z" transform="translate(-1056.101 -611.552)" fill="#305d8a"/><line x1="0.851" y1="0.149" transform="translate(410.371 457.364)" fill="#fff"/><path d="M1473.534,1059.406a.628.628,0,0,1-.107-.009l-.852-.155a.6.6,0,1,1,.214-1.177l.851.155a.6.6,0,0,1-.106,1.186Z" transform="translate(-1062.312 -601.296)" fill="#305d8a"/><line x2="2.254" y2="1.776" transform="translate(414.057 455.588)" fill="#fff"/><path d="M1499.645,1049.184a.6.6,0,0,1-.369-.128l-2.255-1.772a.6.6,0,0,1,.739-.94l2.255,1.772a.6.6,0,0,1-.37,1.067Z" transform="translate(-1083.334 -591.223)" fill="#305d8a"/><line x2="0.925" y2="1.493" transform="translate(418.535 456.066)" fill="#fff"/><path d="M1528.327,1052.053a.6.6,0,0,1-.51-.284l-.923-1.5a.6.6,0,0,1,1.018-.628l.923,1.5a.6.6,0,0,1-.509.912Z" transform="translate(-1108.866 -593.898)" fill="#305d8a"/><line y1="1.896" x2="1.731" transform="translate(429.416 462.932)" fill="#fff"/><path d="M1600.293,1098.5a.6.6,0,0,1-.441-1l1.736-1.893a.6.6,0,0,1,.881.808l-1.736,1.893A.6.6,0,0,1,1600.293,1098.5Z" transform="translate(-1170.877 -633.073)" fill="#305d8a"/><line y1="0.373" x2="1.194" transform="translate(432.58 465.424)" fill="#fff"/><path d="M1621.494,1113.652a.6.6,0,0,1-.178-1.168l1.2-.374a.6.6,0,0,1,.356,1.141l-1.2.374A.586.586,0,0,1,1621.494,1113.652Z" transform="translate(-1188.914 -647.258)" fill="#305d8a"/><line y1="0.463" x2="3.493" transform="translate(434.297 461.499)" fill="#fff"/><path d="M1633,1087.425a.6.6,0,0,1-.079-1.19l3.5-.468a.6.6,0,0,1,.159,1.185l-3.5.468A.609.609,0,0,1,1633,1087.425Z" transform="translate(-1198.7 -624.867)" fill="#305d8a"/><line y1="0.343" x2="0.821" transform="translate(436.55 464.484)" fill="#fff"/><path d="M1648.093,1107.3a.6.6,0,0,1-.237-1.146l.808-.349a.6.6,0,1,1,.474,1.1l-.808.349a.592.592,0,0,1-.237.049Z" transform="translate(-1211.543 -641.873)" fill="#305d8a"/><line x1="2.313" y2="1.896" transform="translate(410.177 469.514)" fill="#fff"/><path d="M1471.391,1142.6a.6.6,0,0,1-.379-1.06l2.318-1.893a.6.6,0,1,1,.756.925l-2.318,1.893A.6.6,0,0,1,1471.391,1142.6Z" transform="translate(-1061.214 -670.591)" fill="#305d8a"/><line x2="2.313" y2="0.403" transform="translate(413.759 466.618)" fill="#fff"/><path d="M1497.675,1121.72a.638.638,0,0,1-.1-.009l-2.318-.4a.6.6,0,1,1,.2-1.178l2.318.4a.6.6,0,0,1-.1,1.187Z" transform="translate(-1081.603 -654.102)" fill="#305d8a"/><line y1="1.493" x2="2.269" transform="translate(415.177 469.514)" fill="#fff"/><path d="M1504.889,1142.167a.6.6,0,0,1-.33-1.1l2.259-1.494a.6.6,0,0,1,.66,1l-2.259,1.494a.6.6,0,0,1-.329.1Z" transform="translate(-1089.713 -670.563)" fill="#305d8a"/><line x1="0.94" y2="2.388" transform="translate(420.834 468.066)" fill="#fff"/><path d="M1542.793,1133.362a.6.6,0,0,1-.556-.818l.946-2.391a.6.6,0,1,1,1.111.44l-.946,2.391A.6.6,0,0,1,1542.793,1133.362Z" transform="translate(-1121.959 -662.31)" fill="#305d8a"/><line x2="0.522" y2="1.149" transform="translate(424.013 470.26)" fill="#fff"/><path d="M1564.593,1146.858a.6.6,0,0,1-.544-.348l-.525-1.146a.6.6,0,0,1,1.087-.5l.525,1.146a.6.6,0,0,1-.543.847Z" transform="translate(-1140.058 -674.851)" fill="#305d8a"/><line x1="3.06" y1="0.925" transform="translate(415.177 461.499)" fill="#fff"/><path d="M1507.973,1087.852a.593.593,0,0,1-.175-.026l-3.056-.935a.6.6,0,0,1,.35-1.143l3.056.935a.6.6,0,0,1-.175,1.169Z" transform="translate(-1089.736 -624.831)" fill="#305d8a"/><line y1="1.134" x2="0.493" transform="translate(425.714 464.484)" fill="#fff"/><path d="M1575.5,1108.127a.6.6,0,0,1-.547-.838l.5-1.134a.6.6,0,0,1,1.1.481l-.5,1.134A.6.6,0,0,1,1575.5,1108.127Z" transform="translate(-1149.781 -641.912)" fill="#305d8a"/><line x2="1.881" y2="0.403" transform="translate(429.401 469.26)" fill="#fff"/><path d="M1602,1139.414a.587.587,0,0,1-.124-.013l-1.893-.4a.6.6,0,0,1,.246-1.17l1.893.4a.6.6,0,0,1-.123,1.182Z" transform="translate(-1170.719 -669.154)" fill="#305d8a"/><line x2="35.269" transform="translate(405.982 480.962)" fill="#fff"/><path d="M1478.6,1217.386h-35.262a.6.6,0,1,1,0-1.2H1478.6a.6.6,0,0,1,0,1.2Z" transform="translate(-1037.353 -735.827)" fill="#305d8a"/><path d="M466.137,1208.9a8.218,8.218,0,0,0-8.168-8.217v-1.1a3.389,3.389,0,0,0-3.389-3.388H441.037a3.389,3.389,0,0,0-3.389,3.388v18.326a3.389,3.389,0,0,0,3.389,3.388H454.58a3.389,3.389,0,0,0,3.389-3.388v-.8a8.218,8.218,0,0,0,8.168-8.217Zm-8.168,4.631v-9.262a4.631,4.631,0,0,1,0,9.262Z" transform="translate(-182.273 -718.819)" fill="#eae8e1"/><path d="M451.174,1218.509H437.631a3.991,3.991,0,0,1-3.986-3.986V1196.2a3.99,3.99,0,0,1,3.986-3.986h13.543a3.99,3.99,0,0,1,3.986,3.986v.523a8.815,8.815,0,0,1,0,17.582v.22A3.991,3.991,0,0,1,451.174,1218.509Zm-13.543-25.1a2.794,2.794,0,0,0-2.791,2.79v18.326a2.794,2.794,0,0,0,2.791,2.79h13.543a2.794,2.794,0,0,0,2.791-2.79v-.8a.6.6,0,0,1,.594-.6,7.619,7.619,0,0,0,0-15.238.6.6,0,0,1-.594-.6v-1.1a2.794,2.794,0,0,0-2.791-2.79Zm16.932,17.333a.6.6,0,0,1-.6-.6v-9.261a.6.6,0,0,1,.177-.425.572.572,0,0,1,.427-.173,5.229,5.229,0,0,1,0,10.457Zm.6-9.209v7.962a4.033,4.033,0,0,0,0-7.962Z" transform="translate(-178.868 -715.427)" fill="#305d8a"/><g transform="translate(267.926 477.387)" opacity="0.2"><path d="M529.514,1200.734v-1.1a3.389,3.389,0,0,0-3.389-3.388h-4.381v25.1h4.381a3.389,3.389,0,0,0,3.389-3.388v-.795a8.217,8.217,0,0,0,0-16.434Zm0,12.847v-9.262a4.631,4.631,0,0,1,0,9.262Z" transform="translate(-521.744 -1196.249)" fill="#9db6c9"/></g><line x2="13.148" transform="translate(258.961 479.768)" fill="#fff"/><path d="M471.418,1209.386H458.27a.6.6,0,0,1,0-1.2h13.149a.6.6,0,1,1,0,1.2Z" transform="translate(-199.309 -729.022)" fill="#305d8a"/></g></svg>