<svg xmlns="http://www.w3.org/2000/svg" viewBox="0 0 231.603 193.644"><g transform="translate(-223.396 -351.268)"><path d="M427.923 523.4h-20.876a10.758 10.758 0 1 1 0-21.516h7.176a10.758 10.758 0 1 0 0-21.516h-43.058a10.758 10.758 0 1 1 0-21.516h72.416a10.758 10.758 0 1 0 0-21.516h-51.54a10.758 10.758 0 1 1 0-21.516h19.572a10.758 10.758 0 1 0 0-21.516h-43.057a10.758 10.758 0 1 1 0-21.516h6.524a10.758 10.758 0 1 0 0-21.516h-65.24a10.758 10.758 0 1 0 0 21.516h3.915a10.758 10.758 0 1 1 0 21.516h-7.177a10.758 10.758 0 1 0 0 21.516h-1.3a10.758 10.758 0 1 1 0 21.516h-71.117a10.758 10.758 0 1 0 0 21.516h18.266a10.758 10.758 0 1 1 0 21.516h-2.609a10.758 10.758 0 1 0 0 21.516h48.929a10.758 10.758 0 1 1 0 21.516h-24.792a10.758 10.758 0 1 0 0 21.516h153.959a10.758 10.758 0 1 0 0-21.516Z" fill="#a7cfe8"/><path d="m255.539 437.079-18.99 23.017 1.793 1.4 18.935-22.838Z" fill="#9db6c9"/><path d="M238.344 462.095a.6.6 0 0 1-.367-.126l-1.793-1.394a.6.6 0 0 1-.094-.852l18.991-23.02a.6.6 0 0 1 .863-.061l1.737 1.582a.6.6 0 0 1 .058.823l-18.935 22.832a.6.6 0 0 1-.46.216Zm-.94-2.086.85.661 18.2-21.947-.851-.775-18.2 22.062Z" fill="#305d8a"/><path d="m236.96 468.066 11.244 21.866h2.386l-11.724-22.911Z" fill="#9db6c9"/><path d="M250.595 490.53h-2.391a.6.6 0 0 1-.532-.325l-11.244-21.865a.6.6 0 0 1 .244-.8l1.906-1.046a.6.6 0 0 1 .82.252l11.729 22.911a.6.6 0 0 1-.532.87Zm-2.026-1.2h1.048l-11-21.493-.857.47 10.811 21.024Z" fill="#305d8a"/><path d="M255.751 419.366a3.287 3.287 0 1 1-4.649 0 3.289 3.289 0 0 1 4.649 0Z" fill="#9db6c9"/><path d="M253.426 425.575a3.885 3.885 0 1 1 2.747-1.138 3.86 3.86 0 0 1-2.747 1.138Zm0-6.574a2.689 2.689 0 1 0 1.9.787 2.674 2.674 0 0 0-1.9-.786Z" fill="#305d8a"/><path d="M273.992 434.089a5.776 5.776 0 1 1-8.169 0 5.777 5.777 0 0 1 8.169 0Z" fill="#fff"/><path d="M269.908 444.546a6.373 6.373 0 1 1 4.507-1.866 6.332 6.332 0 0 1-4.507 1.866Zm0-11.552a5.178 5.178 0 1 0 3.662 1.516 5.146 5.146 0 0 0-3.662-1.516Z" fill="#305d8a"/><path fill="#9db6c9" d="m248.567 425.279 8.452-8.452 2.958 2.958-8.452 8.452z"/><path d="M251.524 428.84a.6.6 0 0 1-.423-.175l-2.958-2.958a.6.6 0 0 1 0-.845l8.453-8.453a.6.6 0 0 1 .845 0l2.958 2.959a.6.6 0 0 1 0 .845l-8.453 8.452a.6.6 0 0 1-.422.175Zm-2.113-3.556 2.113 2.113 7.607-7.607-2.113-2.114Z" fill="#305d8a"/><path d="m279.417 432.469-15.215 15.214-15.636-19.019 11.833-11.833Z" fill="#9db6c9"/><path d="M264.202 448.095h-.029c-.168 0-.325 0-.432-.126l-15.636-18.972a.567.567 0 0 1 .039-.778l11.833-11.822a.6.6 0 0 1 .8-.033l19.018 15.639a.6.6 0 0 1 .043.886l-15.214 15.123c-.112.113-.264.083-.423.083Zm-14.831-19.391 14.874 18.09 14.283-14.283-18.085-14.874-11.066 11.066Z" fill="#305d8a"/><path d="m271.387 439.652 7.115-7.114-18.063-14.9-5.534 5.531ZM253.214 421.481l3.804-3.804.845.845-3.804 3.804zM253.919 419.086a2.761 2.761 0 0 0-2.924 1.333 1.981 1.981 0 0 1 1.375.216ZM269.22 443.439l.9.018 4.648-4.649.422-.422-.036-.809-5.881 5.881" fill="#9db6c9" opacity=".2"/><path d="M241.161 463.812a4.248 4.248 0 1 1-4.248-4.249 4.248 4.248 0 0 1 4.248 4.249Z" fill="#9db6c9"/><path d="M236.912 468.663a4.846 4.846 0 1 1 4.846-4.845 4.851 4.851 0 0 1-4.846 4.845Zm0-8.5a3.651 3.651 0 1 0 3.651 3.651 3.655 3.655 0 0 0-3.651-3.648Z" fill="#305d8a"/><path d="M236.848 460.17v7.3a3.651 3.651 0 0 0 0-7.3Z" fill="#9db6c9" opacity=".2"/><path d="M238.866 463.813a1.953 1.953 0 1 1-1.953-1.954 1.953 1.953 0 0 1 1.953 1.954Z" fill="#9db6c9"/><path d="M236.912 466.364a2.551 2.551 0 1 1 2.551-2.55 2.553 2.553 0 0 1-2.551 2.55Zm0-3.906a1.355 1.355 0 1 0 1.355 1.356 1.357 1.357 0 0 0-1.355-1.356Z" fill="#305d8a"/><path d="M262.321 502.485a11.764 11.764 0 1 0-23.079 0h23.078Z" fill="#9db6c9"/><path d="M262.321 503.081h-23.078a.6.6 0 0 1-.587-.482 12.362 12.362 0 1 1 24.252 0 .6.6 0 0 1-.587.483Zm-22.577-1.2h22.074a11.167 11.167 0 1 0-22.074 0Z" fill="#305d8a"/><path d="M250.782 488.44a11.712 11.712 0 0 0-5.49 1.363 11.695 11.695 0 0 1 13.668 11.6c0 .367-.021.728-.055 1.085h3.416a11.755 11.755 0 0 0-11.539-14.045ZM255.873 438.434l-17.2 20.871.516.269 17.057-20.641ZM238.84 468.26l-.473.209 10.111 19.672h.548Z" fill="#9db6c9" opacity=".2"/><path d="M426.58 439.562a3.733 3.733 0 1 1-1.384-5.455 4 4 0 0 1 1.384 5.455Z" fill="#afddb5"/><path d="M422.848 442.627a3.868 3.868 0 0 1-1.763-.417 4.042 4.042 0 0 1-2.08-2.675 5.145 5.145 0 0 1 .433-3.582 4.912 4.912 0 0 1 4.255-2.8 3.867 3.867 0 0 1 1.762.417 4.6 4.6 0 0 1 1.648 6.258 4.912 4.912 0 0 1-4.255 2.799Zm.845-8.276a3.711 3.711 0 0 0-3.188 2.14 3.95 3.95 0 0 0-.342 2.749 2.863 2.863 0 0 0 1.462 1.9 2.68 2.68 0 0 0 1.223.289 3.71 3.71 0 0 0 3.188-2.14 3.409 3.409 0 0 0-1.121-4.652 2.682 2.682 0 0 0-1.222-.287Z" fill="#305d8a"/><path d="M425.192 434.107c-.074-.038-.152-.068-.228-.1a4.452 4.452 0 0 1-.181 3.761 4.039 4.039 0 0 1-4.987 2.214 3.368 3.368 0 0 0 1.565 1.694 4.282 4.282 0 0 0 3.831-7.57Z" fill="#9db6c9" opacity=".38"/><path d="M423.311 441.354c2.42 4.611 1.138 10.05-2.862 12.149s-9.206.063-11.625-4.548-1.139-10.049 2.862-12.15 9.205-.062 11.625 4.549Z" fill="#afddb5"/><path d="M417.072 454.932a10.232 10.232 0 0 1-8.764-5.695 10.732 10.732 0 0 1-1.029-7.431 8.214 8.214 0 0 1 4.143-5.526 7.813 7.813 0 0 1 3.668-.9 10.233 10.233 0 0 1 8.764 5.695 10.735 10.735 0 0 1 1.029 7.431 8.215 8.215 0 0 1-4.143 5.526 7.816 7.816 0 0 1-3.668.9Zm-1.982-18.351a6.629 6.629 0 0 0-3.112.759 7.036 7.036 0 0 0-3.536 4.741 9.54 9.54 0 0 0 .925 6.6 9.027 9.027 0 0 0 7.7 5.055 6.63 6.63 0 0 0 3.113-.759 7.033 7.033 0 0 0 3.535-4.74 9.536 9.536 0 0 0-.924-6.6 9.028 9.028 0 0 0-7.701-5.056Z" fill="#305d8a"/><path d="M423.311 441.354c-2.42-4.611-7.624-6.647-11.625-4.548-.151.079-.29.172-.434.261a9.446 9.446 0 0 1 7.828 6.8c1.3 4.088.028 8.286-2.867 10.407a7.324 7.324 0 0 0 4.235-.771c4.002-2.099 5.283-7.538 2.863-12.149Z" fill="#9db6c9" opacity=".38"/><ellipse cx="5.08" cy="3.436" rx="5.08" ry="3.436" transform="rotate(18.584 -1204.21 1469.638)" fill="#afddb5"/><path d="M410.43 469.514a7.666 7.666 0 0 1-2.444-.412c-3.018-1.015-4.817-3.489-4.1-5.633.5-1.5 2.122-2.427 4.223-2.427a7.671 7.671 0 0 1 2.444.412c3.018 1.015 4.817 3.489 4.1 5.634-.503 1.496-2.122 2.426-4.223 2.426Zm-2.318-7.277c-1.548 0-2.76.633-3.089 1.612-.491 1.459 1.041 3.345 3.344 4.119a6.467 6.467 0 0 0 2.064.35c1.548 0 2.76-.633 3.089-1.612.491-1.459-1.041-3.346-3.344-4.12a6.469 6.469 0 0 0-2.064-.35Z" fill="#305d8a"/><path d="M410.371 462.021c-2.659-.894-5.306-.16-5.91 1.638a2.389 2.389 0 0 0-.121.742 6.16 6.16 0 0 1 4.238.01c2.3.774 3.857 2.514 3.841 4.134a2.807 2.807 0 0 0 1.672-1.648c.605-1.798-1.061-3.982-3.72-4.876Z" fill="#9db6c9" opacity=".38"/><path d="M441.491 450.334c1.216 1.845-.008 4.8-2.736 6.6s-5.926 1.761-7.142-.084.008-4.8 2.735-6.6 5.925-1.761 7.143.084Z" fill="#afddb5"/><path d="M434.685 458.857a4.078 4.078 0 0 1-3.568-1.677c-1.4-2.118-.093-5.45 2.905-7.427a8.175 8.175 0 0 1 4.4-1.424 4.078 4.078 0 0 1 3.568 1.677c1.4 2.118.092 5.449-2.906 7.427a8.17 8.17 0 0 1-4.4 1.424Zm3.74-9.333a6.967 6.967 0 0 0-3.745 1.227c-2.407 1.587-3.582 4.23-2.566 5.771a2.931 2.931 0 0 0 2.571 1.141 6.966 6.966 0 0 0 3.744-1.227c2.407-1.588 3.582-4.23 2.566-5.771a2.931 2.931 0 0 0-2.57-1.142Z" fill="#305d8a"/><path d="M441.491 450.334a2.879 2.879 0 0 0-1.115-.974c.65 2.079-1.266 4.586-4.326 5.63a7.2 7.2 0 0 1-4.9.048 2.98 2.98 0 0 0 .46 1.812c1.217 1.845 4.415 1.883 7.143.084s3.954-4.755 2.738-6.6Z" fill="#9db6c9" opacity=".38"/><ellipse cx="13.149" cy="15.987" rx="13.149" ry="15.987" transform="translate(410.178 447.795)" fill="#afddb5"/><path d="M423.326 480.365c-7.58 0-13.746-7.44-13.746-16.585s6.166-16.585 13.746-16.585 13.747 7.44 13.747 16.585-6.166 16.585-13.747 16.585Zm0-31.975c-6.92 0-12.551 6.9-12.551 15.39s5.63 15.39 12.551 15.39 12.551-6.9 12.551-15.39-5.63-15.39-12.551-15.39Z" fill="#305d8a"/><path d="M423.326 447.797a10.953 10.953 0 0 0-2.689.336c5.972 1.509 10.459 7.942 10.459 15.651s-4.487 14.142-10.459 15.651a10.951 10.951 0 0 0 2.689.336c7.262 0 13.149-7.158 13.149-15.987s-5.887-15.987-13.149-15.987Z" fill="#9db6c9" opacity=".38"/><path d="M438.864 499.096a3.389 3.389 0 0 1-3.389 3.388h-23.7a3.389 3.389 0 0 1-3.389-3.388l-2.988-21.913a3.389 3.389 0 0 1 3.389-3.388h29.68a3.389 3.389 0 0 1 3.389 3.388l-2.988 21.913Z" fill="#e4c6aa"/><path d="M435.476 503.082h-23.7a3.991 3.991 0 0 1-3.986-3.944l-2.983-21.874a.585.585 0 0 1-.005-.081 3.99 3.99 0 0 1 3.986-3.986h29.68a3.991 3.991 0 0 1 3.987 3.986.626.626 0 0 1-.005.081l-2.983 21.874a3.991 3.991 0 0 1-3.987 3.944Zm-29.483-25.936 2.983 21.869a.631.631 0 0 1 .005.08 2.794 2.794 0 0 0 2.791 2.79h23.7a2.794 2.794 0 0 0 2.791-2.79.59.59 0 0 1 .005-.08l2.983-21.869a2.794 2.794 0 0 0-2.791-2.752h-29.68a2.794 2.794 0 0 0-2.791 2.752Z" fill="#305d8a"/><path d="M438.461 473.797h-2.988a3.389 3.389 0 0 1 3.389 3.388l-2.988 21.912a3.389 3.389 0 0 1-3.389 3.388h2.988a3.389 3.389 0 0 0 3.389-3.388l2.988-21.912a3.389 3.389 0 0 0-3.389-3.388Z" fill="#aa9e80" opacity=".38"/><path d="M398.818 494.32a3.389 3.389 0 0 1-3.389 3.388H285.662a3.389 3.389 0 0 1-3.389-3.388v-73.909a3.389 3.389 0 0 1 3.389-3.388H395.43a3.389 3.389 0 0 1 3.389 3.388Z" fill="#fff"/><path d="M395.43 498.306H285.662a3.991 3.991 0 0 1-3.986-3.986v-73.905a3.99 3.99 0 0 1 3.986-3.986H395.43a3.991 3.991 0 0 1 3.984 3.986v73.909a3.99 3.99 0 0 1-3.986 3.986Zm-109.768-80.685a2.794 2.794 0 0 0-2.791 2.79v73.909a2.794 2.794 0 0 0 2.791 2.791H395.43a2.794 2.794 0 0 0 2.791-2.791v-73.905a2.794 2.794 0 0 0-2.791-2.79Z" fill="#305d8a"/><path d="M394.833 417.017h-1.094a2.69 2.69 0 0 1 2.69 2.69v73.214h1.793v-72.516a3.389 3.389 0 0 0-3.389-3.388ZM391.639 476.379a3.389 3.389 0 0 1-3.389 3.388h-95.422a3.389 3.389 0 0 1-3.389-3.388v-51.2a3.389 3.389 0 0 1 3.389-3.388h95.423a3.389 3.389 0 0 1 3.389 3.388Z" fill="#9db6c9" opacity=".2"/><path d="M391.638 493.111a3.389 3.389 0 0 1-3.389 3.388h-95.422a3.389 3.389 0 0 1-3.389-3.388v-66.139a3.389 3.389 0 0 1 3.389-3.388h95.423a3.389 3.389 0 0 1 3.389 3.388Z" fill="#efefef"/><path d="M388.25 497.111h-95.423a3.99 3.99 0 0 1-3.986-3.982v-66.142a3.99 3.99 0 0 1 3.986-3.986h95.423a3.99 3.99 0 0 1 3.986 3.986v66.142a3.991 3.991 0 0 1-3.986 3.986Zm-95.423-72.915a2.794 2.794 0 0 0-2.791 2.79v66.143a2.794 2.794 0 0 0 2.791 2.79h95.423a2.794 2.794 0 0 0 2.791-2.79v-66.142a2.794 2.794 0 0 0-2.791-2.79Z" fill="#305d8a"/><path d="M388.101 424.189h-64.519l67.461 47.216v-43.828c0-2.541-1.282-3.388-2.942-3.388Z" fill="#fff" opacity=".41"/><path d="M418.953 493.514H262.725c-1.871 0-2.73 1.6-2.193 3.388.178.6.544 1.985.7 2.589a3.92 3.92 0 0 0 3.886 2.988h151.449a3.92 3.92 0 0 0 3.886-2.988c.154-.6.519-1.991.7-2.589.536-1.792-.322-3.388-2.194-3.388Z" fill="#fff"/><path d="M416.565 503.081H265.114a4.534 4.534 0 0 1-4.465-3.438 94.65 94.65 0 0 0-.692-2.566 3.42 3.42 0 0 1 .394-3.052 2.861 2.861 0 0 1 2.372-1.1h156.225a2.861 2.861 0 0 1 2.372 1.1 3.42 3.42 0 0 1 .394 3.053 97.349 97.349 0 0 0-.692 2.565 4.533 4.533 0 0 1-4.465 3.438Zm-153.839-8.965a1.676 1.676 0 0 0-1.414.624 2.252 2.252 0 0 0-.207 2c.184.616.55 2.006.7 2.613a3.315 3.315 0 0 0 3.307 2.538h151.456a3.314 3.314 0 0 0 3.307-2.538c.155-.607.521-2 .7-2.613a2.253 2.253 0 0 0-.207-2 1.677 1.677 0 0 0-1.414-.624H262.731Z" fill="#305d8a"/><path d="M350.787 493.514h-26.675v1.991a3.389 3.389 0 0 0 3.389 3.388h26.094a3.389 3.389 0 0 0 3.389-3.388v-1.991Z" fill="#9db6c9" opacity=".2"/><path d="M350.787 493.514h-26.051a3.388 3.388 0 0 0 3.363 2.989h24.9a3.388 3.388 0 0 0 3.363-2.989h-5.574Z" fill="#9db6c9"/><path d="M352.993 497.112h-24.9a3.985 3.985 0 0 1-3.957-3.516.6.6 0 0 1 .594-.668h31.625a.6.6 0 0 1 .593.668 3.984 3.984 0 0 1-3.956 3.516Zm-27.505-2.988a2.79 2.79 0 0 0 2.605 1.793h24.9a2.79 2.79 0 0 0 2.605-1.793h-30.105Z" fill="#305d8a"/><path d="M261.751 500.097a3.935 3.935 0 0 0 3.367 1.793h151.451a3.935 3.935 0 0 0 3.367-1.793H261.754Z" fill="#9db6c9" opacity=".2"/><path d="M388.251 423.59h-95.423a3.389 3.389 0 0 0-3.389 3.388v1.792a3.389 3.389 0 0 1 3.389-3.388h95.423a3.389 3.389 0 0 1 3.388 3.388v-1.793a3.389 3.389 0 0 0-3.388-3.387Z" fill="#9db6c9" opacity=".33"/><path fill="#9db6c9" d="M282.269 491.723h114.155v1.195H282.269z" opacity=".2"/><circle cx=".672" cy=".672" r=".672" transform="translate(340.174 419.407)" fill="#305d8a"/><path d="M394.027 417.047a2.515 2.515 0 0 1 .3-.03h-.3Z" fill="#9db6c9" opacity=".2"/><path d="M454.402 503.081h-2.989a.6.6 0 1 1 0-1.2h2.989a.6.6 0 1 1 0 1.2Zm-7.77 0h-4.786a.6.6 0 1 1 0-1.2h4.781a.6.6 0 1 1 0 1.2Z" fill="#305d8a"/><path d="M441.849 503.081H246.412a.6.6 0 1 1 0-1.2h195.437a.6.6 0 1 1 0 1.2Z" fill="#305d8a"/><path d="M245.818 503.081a.6.6 0 1 1-.006-1.2h.006a.6.6 0 1 1 0 1.2Zm-4.787 0h-4.782a.6.6 0 1 1 0-1.2h4.781a.6.6 0 1 1 0 1.2Zm-9.563 0h-4.781a.6.6 0 1 1 0-1.2h4.781a.6.6 0 1 1 0 1.2Z" fill="#305d8a"/><path fill="#fff" d="m425.132 438.489 3.269 1.537"/><path d="M428.401 440.625a.591.591 0 0 1-.254-.057l-3.26-1.537a.6.6 0 1 1 .51-1.081l3.26 1.537a.6.6 0 0 1-.256 1.138Z" fill="#305d8a"/><path fill="#fff" d="m423.281 433.783-.179-2.124"/><path d="M423.282 434.381a.6.6 0 0 1-.595-.548l-.177-2.124a.6.6 0 0 1 .546-.645.585.585 0 0 1 .645.546l.177 2.124a.6.6 0 0 1-.546.645Z" fill="#305d8a"/><path fill="#fff" d="m421.311 435.979-2.776-1.597"/><path d="M421.311 436.571a.6.6 0 0 1-.3-.08l-2.768-1.6a.6.6 0 1 1 .6-1.035l2.769 1.6a.6.6 0 0 1-.3 1.115Z" fill="#305d8a"/><path fill="#fff" d="m427.087 435.978 1.313-.201"/><path d="M427.091 436.576a.6.6 0 0 1-.09-1.188l1.307-.2a.6.6 0 0 1 .181 1.182l-1.307.2a.621.621 0 0 1-.091.006Z" fill="#305d8a"/><path fill="#fff" d="m428.401 459.155 2.015-2.313"/><path d="M428.401 459.752a.6.6 0 0 1-.449-.991l2.022-2.307a.6.6 0 1 1 .9.788l-2.022 2.307a.6.6 0 0 1-.451.203Z" fill="#305d8a"/><path fill="#fff" d="m438.565 454.334 3.284 2.508"/><path d="M441.849 457.439a.6.6 0 0 1-.363-.123l-3.287-2.516a.6.6 0 0 1 .726-.949l3.287 2.516a.6.6 0 0 1-.364 1.072Z" fill="#305d8a"/><path fill="#fff" d="m437.625 457.558.343 1"/><path d="M437.968 459.156a.6.6 0 0 1-.565-.4l-.341-.993a.6.6 0 1 1 1.13-.389l.341.993a.6.6 0 0 1-.565.792Z" fill="#305d8a"/><path fill="#fff" d="m434.715 451.304-.836-3.015"/><path d="M434.714 451.902a.6.6 0 0 1-.576-.438l-.834-3.005a.6.6 0 1 1 1.152-.32l.835 3.005a.6.6 0 0 1-.416.736.61.61 0 0 1-.161.022Z" fill="#305d8a"/><path fill="#fff" d="m438.267 448.692.597-1.194"/><path d="M438.27 449.289a.6.6 0 0 1-.534-.865l.6-1.2a.6.6 0 1 1 1.069.535l-.6 1.2a.6.6 0 0 1-.535.33Z" fill="#305d8a"/><path fill="#fff" d="m440.655 451.305 3.284-.821"/><path d="M440.659 451.902a.6.6 0 0 1-.143-1.178l3.287-.814a.6.6 0 0 1 .287 1.16l-3.287.814a.617.617 0 0 1-.144.018Z" fill="#305d8a"/><path fill="#fff" d="m441.849 452.901 1.09.09"/><path d="M442.939 453.588a.466.466 0 0 1-.052 0l-1.1-.094a.6.6 0 0 1-.544-.647.588.588 0 0 1 .647-.544l1.1.094a.6.6 0 0 1-.051 1.193Z" fill="#305d8a"/><path fill="#fff" d="m413.759 437.337.597-2.988"/><path d="M413.759 437.935a.582.582 0 0 1-.118-.012.6.6 0 0 1-.469-.7l.6-2.988a.6.6 0 0 1 1.172.234l-.6 2.989a.6.6 0 0 1-.585.477Z" fill="#305d8a"/><path fill="#fff" d="m411.222 437.079-1.448-1.1"/><path d="M411.222 437.677a.593.593 0 0 1-.361-.122l-1.449-1.1a.6.6 0 1 1 .722-.951l1.449 1.1a.6.6 0 0 1-.362 1.073Z" fill="#305d8a"/><path fill="#fff" d="m411.221 449.588-3.612.896"/><path d="M407.614 451.081a.6.6 0 0 1-.144-1.178l3.614-.9a.6.6 0 0 1 .289 1.16l-3.614.9a.624.624 0 0 1-.145.018Z" fill="#305d8a"/><path fill="#fff" d="m413.758 445.153-2.537-.843"/><path d="M413.759 445.753a.6.6 0 0 1-.189-.031l-2.535-.844a.6.6 0 1 1 .377-1.135l2.535.844a.6.6 0 0 1-.188 1.165Z" fill="#305d8a"/><path fill="#fff" d="m416.072 441.022.478-2.533"/><path d="M416.072 441.621a.58.58 0 0 1-.11-.01.6.6 0 0 1-.479-.7l.47-2.533a.6.6 0 0 1 1.175.218l-.47 2.533a.6.6 0 0 1-.586.492Z" fill="#305d8a"/><path fill="#fff" d="m420.834 441.42 1.881-2.931"/><path d="M420.838 442.019a.6.6 0 0 1-.5-.922l1.893-2.932a.6.6 0 1 1 1 .648l-1.893 2.932a.6.6 0 0 1-.5.274Z" fill="#305d8a"/><path fill="#fff" d="m422.326 444.31 3.388.421"/><path d="M425.714 445.329a.536.536 0 0 1-.075 0l-3.387-.422a.6.6 0 0 1 .148-1.186l3.387.422a.6.6 0 0 1-.073 1.191Z" fill="#305d8a"/><path fill="#fff" d="m407.997 446.854-3.209-.851"/><path d="M407.997 447.452a.6.6 0 0 1-.154-.02l-3.2-.85a.6.6 0 1 1 .307-1.155l3.2.85a.6.6 0 0 1-.153 1.175Z" fill="#305d8a"/><path fill="#fff" d="m406.385 442.817 1.224-.19"/><path d="M406.389 443.413a.6.6 0 0 1-.091-1.188l1.215-.189a.6.6 0 0 1 .183 1.181l-1.214.189a.641.641 0 0 1-.092.007Z" fill="#305d8a"/><path fill="#fff" d="m417.938 446.428.597-1.697"/><path d="M417.938 447.027a.6.6 0 0 1-.564-.8l.6-1.7a.6.6 0 1 1 1.128.4l-.6 1.7a.6.6 0 0 1-.564.4Z" fill="#305d8a"/><path fill="#fff" d="m410.176 440.026-1.582-1.537"/><path d="M410.176 440.625a.6.6 0 0 1-.417-.17l-1.577-1.537a.6.6 0 1 1 .835-.856l1.577 1.537a.6.6 0 0 1-.417 1.025Z" fill="#305d8a"/><path fill="#fff" d="m414.057 448.289 1 .403"/><path d="M415.057 449.289a.6.6 0 0 1-.222-.043l-1-.4a.6.6 0 0 1 .445-1.11l1 .4a.6.6 0 0 1-.222 1.153Z" fill="#305d8a"/><path fill="#fff" d="m408.594 462.932-2.209-2.881"/><path d="M408.595 463.529a.6.6 0 0 1-.476-.236l-2.2-2.889a.6.6 0 1 1 .952-.724l2.2 2.888a.6.6 0 0 1-.475.96Z" fill="#305d8a"/><path fill="#fff" d="m405.386 462.424-1.045-.925"/><path d="M405.385 463.022a.6.6 0 0 1-.4-.151l-1.054-.935a.6.6 0 1 1 .793-.894l1.054.935a.6.6 0 0 1-.4 1.045Z" fill="#305d8a"/><path fill="#fff" d="m406.386 465.275-2.687 1.045"/><path d="M403.699 466.917a.6.6 0 0 1-.216-1.155l2.7-1.046a.6.6 0 0 1 .432 1.115l-2.7 1.046a.6.6 0 0 1-.216.04Z" fill="#305d8a"/><path fill="#fff" d="m406.385 467.648-1 1.269"/><path d="M405.387 469.513a.589.589 0 0 1-.37-.13.6.6 0 0 1-.1-.839l1-1.265a.6.6 0 0 1 .936.742l-1 1.266a.6.6 0 0 1-.466.226Z" fill="#305d8a"/><path fill="#fff" d="m408.594 466.618-.597 2.896"/><path d="M407.997 470.111a.617.617 0 0 1-.121-.012.6.6 0 0 1-.465-.706l.6-2.889a.6.6 0 0 1 1.171.242l-.6 2.889a.6.6 0 0 1-.585.477Z" fill="#305d8a"/><path fill="#fff" d="m428.804 451.305 1.194-3.508"/><path d="M428.804 451.902a.586.586 0 0 1-.193-.032.6.6 0 0 1-.372-.759l1.2-3.5a.6.6 0 0 1 1.131.386l-1.2 3.5a.6.6 0 0 1-.565.4Z" fill="#305d8a"/><path fill="#fff" d="m426.58 448.29.194-1.436"/><path d="M426.58 448.886a.7.7 0 0 1-.076 0 .6.6 0 0 1-.518-.668l.183-1.441a.6.6 0 0 1 1.186.151l-.183 1.44a.6.6 0 0 1-.592.518Z" fill="#305d8a"/><path fill="#fff" d="m416.072 452.992-3.015-2.105"/><path d="M416.073 453.588a.6.6 0 0 1-.341-.107l-3.015-2.1a.6.6 0 1 1 .683-.982l3.016 2.1a.6.6 0 0 1-.342 1.089Z" fill="#305d8a"/><path fill="#fff" d="m420.923 448.096.597-1.793"/><path d="M420.923 448.693a.591.591 0 0 1-.189-.031.6.6 0 0 1-.378-.756l.6-1.793a.6.6 0 1 1 1.133.378l-.6 1.793a.6.6 0 0 1-.566.409Z" fill="#305d8a"/><path fill="#fff" d="m419.923 450.887.91 1.06"/><path d="M420.834 452.544a.6.6 0 0 1-.452-.207l-.907-1.049a.6.6 0 1 1 .9-.782l.906 1.049a.6.6 0 0 1-.452.989Z" fill="#305d8a"/><path fill="#fff" d="m423.49 450.484-.388 3.105"/><path d="M423.102 454.185a.67.67 0 0 1-.075 0 .6.6 0 0 1-.518-.668l.389-3.1a.6.6 0 0 1 1.186.149l-.389 3.1a.6.6 0 0 1-.593.519Z" fill="#305d8a"/><path fill="#fff" d="m432.58 454.767 2.388-1.179"/><path d="M432.58 455.365a.6.6 0 0 1-.266-1.133l2.391-1.181a.6.6 0 0 1 .53 1.072l-2.391 1.181a.6.6 0 0 1-.264.061Z" fill="#305d8a"/><path fill="#fff" d="M434.073 456.469h1.791"/><path d="M435.864 457.065h-1.793a.6.6 0 0 1 0-1.2h1.793a.6.6 0 0 1 0 1.2Z" fill="#305d8a"/><path fill="#fff" d="m409.281 459.155 2.388 1.896"/><path d="M411.669 461.648a.6.6 0 0 1-.371-.129l-2.391-1.892a.6.6 0 0 1 .743-.937l2.391 1.892a.6.6 0 0 1-.372 1.066Z" fill="#305d8a"/><path fill="#fff" d="m411.222 457.513-.851-.149"/><path d="M411.222 458.11a.628.628 0 0 1-.107-.009l-.852-.155a.6.6 0 1 1 .214-1.177l.851.155a.6.6 0 0 1-.106 1.186Z" fill="#305d8a"/><path fill="#fff" d="m414.057 455.588 2.254 1.776"/><path d="M416.311 457.961a.6.6 0 0 1-.369-.128l-2.255-1.772a.6.6 0 0 1 .739-.94l2.255 1.772a.6.6 0 0 1-.37 1.067Z" fill="#305d8a"/><path fill="#fff" d="m418.535 456.066.925 1.493"/><path d="M419.461 458.155a.6.6 0 0 1-.51-.284l-.923-1.5a.6.6 0 0 1 1.018-.628l.923 1.5a.6.6 0 0 1-.509.912Z" fill="#305d8a"/><path fill="#fff" d="m429.416 464.828 1.731-1.896"/><path d="M429.416 465.427a.6.6 0 0 1-.441-1l1.736-1.893a.6.6 0 0 1 .881.808l-1.736 1.893a.6.6 0 0 1-.44.192Z" fill="#305d8a"/><path fill="#fff" d="m432.58 465.797 1.194-.373"/><path d="M432.58 466.394a.6.6 0 0 1-.178-1.168l1.2-.374a.6.6 0 0 1 .356 1.141l-1.2.374a.586.586 0 0 1-.178.027Z" fill="#305d8a"/><path fill="#fff" d="m434.297 461.962 3.493-.463"/><path d="M434.3 462.558a.6.6 0 0 1-.079-1.19l3.5-.468a.6.6 0 0 1 .159 1.185l-3.5.468a.609.609 0 0 1-.08.005Z" fill="#305d8a"/><path fill="#fff" d="m436.55 464.827.821-.343"/><path d="M436.55 465.427a.6.6 0 0 1-.237-1.146l.808-.349a.6.6 0 1 1 .474 1.1l-.808.349a.592.592 0 0 1-.237.049Z" fill="#305d8a"/><path fill="#fff" d="m412.49 469.514-2.313 1.896"/><path d="M410.177 472.009a.6.6 0 0 1-.379-1.06l2.318-1.893a.6.6 0 1 1 .756.925l-2.318 1.893a.6.6 0 0 1-.377.135Z" fill="#305d8a"/><path fill="#fff" d="m413.759 466.618 2.313.403"/><path d="M416.072 467.618a.638.638 0 0 1-.1-.009l-2.318-.4a.6.6 0 1 1 .2-1.178l2.318.4a.6.6 0 0 1-.1 1.187Z" fill="#305d8a"/><path fill="#fff" d="m415.177 471.007 2.269-1.493"/><path d="M415.176 471.604a.6.6 0 0 1-.33-1.1l2.259-1.494a.6.6 0 0 1 .66 1l-2.259 1.494a.6.6 0 0 1-.329.1Z" fill="#305d8a"/><path fill="#fff" d="m421.774 468.066-.94 2.388"/><path d="M420.834 471.052a.6.6 0 0 1-.556-.818l.946-2.391a.6.6 0 1 1 1.111.44l-.946 2.391a.6.6 0 0 1-.555.378Z" fill="#305d8a"/><path fill="#fff" d="m424.013 470.26.522 1.149"/><path d="M424.535 472.007a.6.6 0 0 1-.544-.348l-.525-1.146a.6.6 0 0 1 1.087-.5l.525 1.146a.6.6 0 0 1-.543.847Z" fill="#305d8a"/><path fill="#fff" d="m418.237 462.424-3.06-.925"/><path d="M418.237 463.021a.593.593 0 0 1-.175-.026l-3.056-.935a.6.6 0 0 1 .35-1.143l3.056.935a.6.6 0 0 1-.175 1.169Z" fill="#305d8a"/><path fill="#fff" d="m425.714 465.618.493-1.134"/><path d="M425.719 466.215a.6.6 0 0 1-.547-.838l.5-1.134a.6.6 0 0 1 1.1.481l-.5 1.134a.6.6 0 0 1-.553.357Z" fill="#305d8a"/><path fill="#fff" d="m429.401 469.26 1.881.403"/><path d="M431.281 470.26a.587.587 0 0 1-.124-.013l-1.893-.4a.6.6 0 0 1 .246-1.17l1.893.4a.6.6 0 0 1-.123 1.182Z" fill="#305d8a"/><path fill="#fff" d="M405.982 480.962h35.269"/><path d="M441.247 481.559h-35.262a.6.6 0 1 1 0-1.2h35.262a.6.6 0 0 1 0 1.2Z" fill="#305d8a"/><path d="M283.864 490.081a8.218 8.218 0 0 0-8.168-8.217v-1.1a3.389 3.389 0 0 0-3.389-3.388h-13.543a3.389 3.389 0 0 0-3.389 3.388v18.326a3.389 3.389 0 0 0 3.389 3.388h13.543a3.389 3.389 0 0 0 3.389-3.388v-.8a8.218 8.218 0 0 0 8.168-8.217Zm-8.168 4.631v-9.262a4.631 4.631 0 0 1 0 9.262Z" fill="#eae8e1"/><path d="M272.306 503.082h-13.543a3.991 3.991 0 0 1-3.986-3.986v-18.323a3.99 3.99 0 0 1 3.986-3.986h13.543a3.99 3.99 0 0 1 3.986 3.986v.523a8.815 8.815 0 0 1 0 17.582v.22a3.991 3.991 0 0 1-3.986 3.984Zm-13.543-25.1a2.794 2.794 0 0 0-2.791 2.79v18.326a2.794 2.794 0 0 0 2.791 2.79h13.543a2.794 2.794 0 0 0 2.791-2.79v-.8a.6.6 0 0 1 .594-.6 7.619 7.619 0 0 0 0-15.238.6.6 0 0 1-.594-.6v-1.1a2.794 2.794 0 0 0-2.791-2.79Zm16.932 17.333a.6.6 0 0 1-.6-.6v-9.261a.6.6 0 0 1 .177-.425.572.572 0 0 1 .427-.173 5.229 5.229 0 0 1 0 10.457Zm.6-9.209v7.962a4.033 4.033 0 0 0 0-7.962Z" fill="#305d8a"/><path d="M275.696 481.872v-1.1a3.389 3.389 0 0 0-3.389-3.388h-4.381v25.1h4.381a3.389 3.389 0 0 0 3.389-3.388v-.795a8.217 8.217 0 0 0 0-16.434Zm0 12.847v-9.262a4.631 4.631 0 0 1 0 9.262Z" fill="#9db6c9" opacity=".2"/><path fill="#fff" d="M258.961 479.768h13.148"/><path d="M272.109 480.364h-13.148a.6.6 0 0 1 0-1.2h13.149a.6.6 0 1 1 0 1.2Z" fill="#305d8a"/></g></svg>